<svg width="22" height="27" viewBox="0 0 22 27" fill="none" xmlns="http://www.w3.org/2000/svg">
<path d="M18.1081 25.7635C16.7297 27.1707 15.2247 26.9486 13.7759 26.282C12.2428 25.6006 10.8362 25.5709 9.21869 26.282C7.19325 27.2004 6.12427 26.9337 4.91463 25.7635C-1.94936 18.3126 -0.936635 6.96589 6.85568 6.55113C8.75453 6.65482 10.0767 7.64729 11.1879 7.73616C12.8476 7.38065 14.437 6.35856 16.2093 6.49188C18.3332 6.66963 19.9366 7.55841 20.9916 9.15821C16.6031 11.9282 17.644 18.0163 21.6667 19.7198C20.865 21.9418 19.8241 24.1489 18.0941 25.7783L18.1081 25.7635ZM11.0472 6.46225C10.8362 3.15896 13.3821 0.433381 16.3077 0.166748C16.7156 3.98849 13.0164 6.83257 11.0472 6.46225Z" fill="#202020"/>
</svg>
