<svg width="24" height="25" viewBox="0 0 24 25" fill="none" xmlns="http://www.w3.org/2000/svg">
<path d="M10.125 0.5H13.875C14.4984 0.5 15 1.00156 15 1.625V9.5H19.1109C19.9453 9.5 20.3625 10.5078 19.7719 11.0984L12.6422 18.2328C12.2906 18.5844 11.7141 18.5844 11.3625 18.2328L4.22344 11.0984C3.63281 10.5078 4.05 9.5 4.88437 9.5H9V1.625C9 1.00156 9.50156 0.5 10.125 0.5ZM24 18.125V23.375C24 23.9984 23.4984 24.5 22.875 24.5H1.125C0.501562 24.5 0 23.9984 0 23.375V18.125C0 17.5016 0.501562 17 1.125 17H8.00156L10.2984 19.2969C11.2406 20.2391 12.7594 20.2391 13.7016 19.2969L15.9984 17H22.875C23.4984 17 24 17.5016 24 18.125ZM18.1875 22.25C18.1875 21.7344 17.7656 21.3125 17.25 21.3125C16.7344 21.3125 16.3125 21.7344 16.3125 22.25C16.3125 22.7656 16.7344 23.1875 17.25 23.1875C17.7656 23.1875 18.1875 22.7656 18.1875 22.25ZM21.1875 22.25C21.1875 21.7344 20.7656 21.3125 20.25 21.3125C19.7344 21.3125 19.3125 21.7344 19.3125 22.25C19.3125 22.7656 19.7344 23.1875 20.25 23.1875C20.7656 23.1875 21.1875 22.7656 21.1875 22.25Z" fill="#F48C5F"/>
</svg>
