<svg width="100" height="100" viewBox="0 0 100 100" fill="none" xmlns="http://www.w3.org/2000/svg">
<path fill-rule="evenodd" clip-rule="evenodd" d="M43.0869 43.7193L46.519 51.9738C46.8756 52.8314 46.5098 53.8123 45.684 54.2371L43.1073 55.5629C42.6471 55.7996 42.1615 55.8297 41.6756 55.6512C41.1899 55.4728 40.841 55.135 40.6414 54.6574L36.7758 45.4105L43.0869 43.7193ZM64.6858 68.5451L94.7067 94.5629C94.844 94.1648 94.9223 93.7393 94.9223 93.2951V43.9248C94.9223 43.4826 94.8459 43.0605 94.7114 42.6662L64.6858 68.5451ZM50.117 75.9441L91.7225 40.085C91.4922 40.0435 91.2582 40.0178 91.0158 40.0178H80.6383C80.7551 43.6926 78.3256 47.1379 74.6356 48.1266C71.2784 49.0262 67.7821 47.6605 65.8723 44.9102C60.1196 42.6967 53.1869 42.1164 46.8297 42.5467L50.1258 50.4742C51.2598 53.2018 50.0955 56.3604 47.4709 57.7107L44.8942 59.0365C43.4645 59.7721 41.8383 59.8723 40.3291 59.3182C38.8229 58.765 37.6561 57.6441 37.0375 56.1643L32.9143 46.3012C27.8324 46.8828 22.8623 44.3471 20.2949 40.0178H8.9844C8.97698 40.0178 8.97053 40.0178 8.96311 40.0178L50.117 75.9441ZM51.3848 80.0107L61.6951 71.1238L91.7114 97.1352C91.4865 97.1766 91.2535 97.2016 91.0158 97.2016H8.9842C8.98049 97.2016 8.97874 97.2016 8.97502 97.2016L38.6698 71.135L48.8262 80.0008C49.1938 80.3232 49.6508 80.4826 50.1096 80.4826C50.5649 80.4824 51.0172 80.325 51.3848 80.0107ZM35.7014 68.5451L5.49983 95.0529C5.23264 94.524 5.07776 93.9279 5.07776 93.2951V43.9248C5.07776 43.2955 5.23069 42.7041 5.49612 42.1762L35.7014 68.5451ZM82.4129 30.9131L88.5516 32.5578C89.5334 32.8209 90.543 32.2318 90.8035 31.2508C91.0647 30.2684 90.4766 29.2603 89.4959 28.9977L83.3573 27.3529C82.3754 27.0898 81.3658 27.6789 81.1053 28.66C80.844 29.6424 81.4321 30.6504 82.4129 30.9131ZM79.4573 12.7978L83.951 8.3041C84.669 7.58613 84.6742 6.41933 83.9569 5.69902C83.2405 4.97968 82.0719 4.97421 81.353 5.69316L76.8592 10.1869C76.1412 10.9049 76.136 12.0717 76.8533 12.792C77.5698 13.5113 78.7383 13.5168 79.4573 12.7978ZM84.8531 21.0689L90.6725 19.5096C91.6604 19.2449 92.2465 18.2297 91.9819 17.2418C91.7172 16.2539 90.702 15.6678 89.7141 15.9324L83.8946 17.4918C82.9067 17.7564 82.3205 18.7717 82.5852 19.7596C82.85 20.7475 83.8653 21.3336 84.8531 21.0689ZM73.41 27.3187C73.6295 27.2906 73.8498 27.2477 74.0696 27.1887C76.7219 26.4779 78.2959 23.7518 77.5852 21.0994C76.8744 18.4471 74.1483 16.8732 71.4959 17.5838C71.276 17.6428 71.0637 17.7156 70.8596 17.801L67.674 5.91211C67.076 3.68007 64.7604 2.34316 62.5283 2.94121C60.4492 3.49824 59.1186 5.56445 59.4711 7.6873L59.4709 7.6875C55.5742 12.982 48.9617 18.1834 40.8309 21.9502L45.3301 38.7414C54.2586 37.9469 62.5992 39.1801 68.6213 41.817H68.6215C69.3864 43.784 71.5418 44.9109 73.6246 44.3529C75.8477 43.7572 77.1912 41.4301 76.5955 39.2072L73.41 27.3187ZM41.6399 40.0631L33.7586 42.1748C28.9697 43.458 24.0018 40.5896 22.7186 35.801C21.4354 31.0123 24.3037 26.0439 29.0926 24.7607L36.9739 22.649C38.5291 28.4537 40.084 34.2584 41.6399 40.0631Z" fill="white"/>
</svg>
