<svg xmlns="http://www.w3.org/2000/svg" width="126" height="125" viewBox="0 0 126 125" fill="none">
  <g clip-path="url(#clip0_438_26730)">
    <path d="M57.5147 102.895L44.0413 117.265C33.4282 128.584 15.1231 127.291 6.15408 114.63C5.56301 113.795 4.99002 112.947 4.43557 112.085C4.39089 112.016 4.34622 111.946 4.30154 111.876C-2.94578 100.528 0.431422 85.4409 11.7613 78.1641L28.1575 67.6331L57.5147 102.895Z" fill="#F2A98C"/>
    <path d="M87.6872 36.8657C89.9822 40.9986 95.1929 42.4883 99.3257 40.1934L121.114 28.0943C125.247 25.7993 126.737 20.5886 124.442 16.4558C122.147 12.323 116.936 10.8333 112.803 13.1282L91.0149 25.2273C86.8823 27.5225 85.3923 32.7332 87.6872 36.8657Z" fill="#FFC5AB"/>
    <path d="M29.6177 11.2236C37.2869 9.49388 44.906 14.3086 46.6357 21.9778L50.9761 41.2219C68.4514 34.7937 87.4971 40.6111 95.3633 55.5864C104.027 72.0803 95.8491 93.4363 77.0967 103.287C58.3445 113.137 36.1191 107.751 27.4551 91.2576C22.8865 82.5603 23.0019 72.5119 26.8808 63.511C30.4172 55.3049 31.1938 46.1724 29.2278 37.4558L24.97 18.5776C24.2231 15.2637 26.3037 11.9712 29.6177 11.2236Z" fill="#FFC5AB"/>
    <path d="M102.508 8.45264V100.136C102.508 104.803 98.7246 108.589 94.0549 108.589H50.5847C45.9177 108.589 42.1321 104.803 42.1321 100.136V8.45264C42.1318 3.78296 45.9177 0 50.5847 0H94.0549C98.7246 0 102.508 3.78296 102.508 8.45264Z" fill="#424242"/>
    <path d="M98.0596 9.01392V99.5747C98.0596 101.851 96.2158 103.694 93.9397 103.694H50.6997C48.4238 103.694 46.5801 101.851 46.5801 99.5747V9.01392C46.5801 6.73804 48.4238 4.89429 50.6997 4.89429H93.9399C96.2158 4.89429 98.0596 6.73804 98.0596 9.01392Z" fill="white"/>
    <path d="M98.0596 9.01392V71.4131H46.5798V9.01392C46.5798 6.73804 48.4236 4.89429 50.6995 4.89429H93.9399C96.2158 4.89429 98.0596 6.73804 98.0596 9.01392Z" fill="#AC6BAD"/>
    <path d="M87.3806 81.3289H57.259C55.0376 81.3289 53.2366 83.1299 53.2366 85.3513V88.9995C53.2366 91.2209 55.0374 93.022 57.259 93.022H87.3806C89.6021 93.022 91.4031 91.2212 91.4031 88.9995V85.3513C91.4031 83.1296 89.6021 81.3289 87.3806 81.3289Z" fill="#AC6BAD"/>
    <path d="M72.3198 64.2654C82.2392 64.2654 90.2805 62.255 90.2805 59.7751C90.2805 57.2953 82.2392 55.2849 72.3198 55.2849C62.4004 55.2849 54.3591 57.2953 54.3591 59.7751C54.3591 62.255 62.4004 64.2654 72.3198 64.2654Z" fill="#913E98"/>
    <path d="M72.8962 32.5545L72.8486 31.4629H67.0845L67.0452 28.376L66.8711 14.3863L66.8682 14.1448C66.8596 13.5835 67.3088 13.1233 67.8701 13.1177L71.6392 13.0701C72.0293 13.0672 72.3716 13.2835 72.5457 13.6033C72.6213 13.7437 72.6636 13.9007 72.6663 14.0721L72.8459 28.376L72.8823 31.4629L72.8962 32.5545Z" fill="#FC933A"/>
    <path d="M63.0909 27.6797C62.7935 27.2446 62.2967 26.9724 61.7549 26.9724H57.2254C57.1524 25.9426 57.0794 24.9153 57.0064 23.8855L56.9278 22.7685L56.3638 14.8098C56.305 14.0044 56.9109 13.3056 57.7193 13.2468L60.5845 13.0447C61.1233 13.0083 61.6145 13.2663 61.898 13.6816C62.0411 13.8865 62.1282 14.1335 62.1477 14.4001L62.7652 23.1194L62.928 25.3982L62.9422 25.6116L63.0909 27.6797Z" fill="#FEB33C"/>
    <path d="M85.0139 14.8098L84.374 23.8435L84.1523 26.9726H82.8699C82.8054 26.9726 82.7437 26.9755 82.6819 26.9838C82.0757 27.0539 81.551 27.4665 81.3459 28.0529C81.3459 28.0559 81.343 28.0585 81.343 28.0615L80.6668 30.0231L80.1699 31.4628H78.0176L78.2366 28.3759L78.3909 26.187L79.2271 14.4003C79.2859 13.5949 79.9849 12.9887 80.7903 13.0449L83.6585 13.247C84.2422 13.289 84.7192 13.6679 84.9185 14.1787C84.9944 14.3749 85.0308 14.5881 85.0139 14.8098Z" fill="#FC933A"/>
    <path d="M67.3088 31.4627H64.4548L63.958 30.023L63.2817 28.0613C63.2817 28.0584 63.2788 28.0557 63.2788 28.0528C63.2312 27.918 63.1694 27.7918 63.0908 27.6795C62.7935 27.2444 62.2966 26.9722 61.7549 26.9722H61.5361V14.5208C61.5361 14.1868 61.6765 13.8921 61.8982 13.6817C62.1648 13.429 62.5493 13.3028 62.9451 13.3897L66.3801 14.1446C66.5654 14.1865 66.7336 14.2708 66.8713 14.386C67.1294 14.5991 67.2895 14.9221 67.2922 15.2757L67.3062 28.3758L67.3088 31.4627Z" fill="#FFD23E"/>
    <path d="M90.071 15.0737L88.9961 23.2234L88.9006 23.9531L88.4768 27.1553C88.1821 27.0374 87.8567 26.9729 87.5115 26.9729H82.8699C82.8054 26.9729 82.7437 26.9758 82.6819 26.9841L83.0916 23.9111L83.2432 22.7634L84.2676 15.0684C84.3208 14.6726 84.5735 14.3416 84.9187 14.1787C85.0422 14.117 85.177 14.0806 85.3201 14.0664L88.8252 13.7688C89.563 13.707 90.1692 14.3413 90.071 15.0737Z" fill="#FFD23E"/>
    <path d="M78.4893 28.3758L78.6297 31.4627H72.8823L72.8965 32.5542L72.8489 31.4627L72.7141 28.3758L72.1079 14.5601C72.0911 14.17 72.2678 13.8247 72.5457 13.6031C72.7925 13.4065 73.1209 13.3113 73.4661 13.3701L76.9319 13.9734C77.468 14.0659 77.8665 14.5179 77.8916 15.0623L78.3911 26.1866L78.4893 28.3758Z" fill="#FFD23E"/>
    <path d="M90.0381 29.9023L86.1484 55.6758C85.8174 57.8704 83.7209 59.5261 81.3103 59.5261H63.3159C60.9053 59.5261 58.8088 57.8704 58.4778 55.6758L58.3347 54.7131L58.3096 54.5476L54.5884 29.9023C54.3525 28.3364 55.5229 26.9727 57.114 26.9727H61.7556C62.4404 26.9727 63.0522 27.4077 63.2795 28.053C63.2795 28.0559 63.2825 28.0586 63.2825 28.0615L63.9587 30.0232L64.4556 31.4629H80.1711L80.668 30.0232L81.3442 28.0615C81.3442 28.0586 81.3472 28.0559 81.3472 28.053C81.5745 27.4075 82.1863 26.9727 82.8711 26.9727H87.5127C89.1035 26.9727 90.2737 28.3364 90.0381 29.9023Z" fill="#DB4646"/>
    <path d="M84.9473 26.9727L81.3411 50.866C81.01 53.0632 78.9109 54.719 76.5 54.719H58.5085C58.4355 54.6572 58.3823 54.6096 58.3093 54.5478L54.5884 29.9023C54.3525 28.3364 55.5229 26.9727 57.114 26.9727H61.7556C62.4404 26.9727 63.0522 27.4077 63.2795 28.053C63.2795 28.0559 63.2825 28.0586 63.2825 28.0615L63.9587 30.0232C64.2563 30.8848 65.0671 31.4629 65.9792 31.4629H78.6472C79.5593 31.4629 80.3704 30.8848 80.6677 30.0232L81.344 28.0615C81.344 28.0586 81.3469 28.0559 81.3469 28.053C81.5742 27.4075 82.186 26.9727 82.8708 26.9727H84.9473Z" fill="#EE5351"/>
    <path d="M63.7767 39.064H81.0826C82.3956 39.064 83.3414 40.3235 82.9754 41.5845L82.0272 44.8508C81.7828 45.6929 81.0113 46.2722 80.1343 46.2722H64.7252C63.8482 46.2722 63.0767 45.6929 62.8323 44.8508L61.8841 41.5845C61.5176 40.3235 62.4637 39.064 63.7767 39.064Z" fill="#FEC110"/>
    <path d="M106.598 88.0464L97.4853 93.1062C94.157 94.9556 89.9587 93.7544 88.1094 90.426C86.521 87.5664 87.1804 84.0696 89.5041 81.9678C89.8857 81.6199 90.3181 81.3084 90.7895 81.0474L99.9018 75.9875C100.963 75.3982 102.11 75.1204 103.241 75.1204C105.666 75.1204 108.018 76.4002 109.278 78.6704C109.637 79.3186 109.884 80.0007 110.019 80.6909C110.577 83.5449 109.278 86.5562 106.598 88.0464Z" fill="#F2AEA0"/>
    <path d="M110.019 80.6909C109.634 81.0388 109.205 81.3503 108.733 81.6113L99.6208 86.6711C96.2898 88.5178 92.0913 87.3193 90.2422 83.9883C89.8831 83.3401 89.6387 82.658 89.5042 81.9678C89.8857 81.6199 90.3181 81.3084 90.7895 81.0474L99.9019 75.9875C100.963 75.3982 102.11 75.1204 103.241 75.1204C105.666 75.1204 108.018 76.4002 109.278 78.6704C109.637 79.3186 109.884 80.0005 110.019 80.6909Z" fill="#FFC5AB"/>
    <path d="M106.598 69.5945L97.4853 74.6543C94.157 76.5037 89.9587 75.3025 88.1094 71.9741C86.521 69.1145 87.1804 65.6177 89.5041 63.5159C89.8857 63.168 90.3181 62.8564 90.7895 62.5955L99.9018 57.5356C100.963 56.9463 102.11 56.6685 103.241 56.6685C105.666 56.6685 108.018 57.9482 109.278 60.2185C109.637 60.8667 109.884 61.5488 110.019 62.239C110.577 65.0933 109.278 68.1045 106.598 69.5945Z" fill="#F2AEA0"/>
    <path d="M110.019 62.239C109.634 62.5869 109.205 62.8984 108.733 63.1594L99.6208 68.2192C96.2898 70.0659 92.0913 68.8674 90.2422 65.5364C89.8831 64.8882 89.6387 64.2061 89.5042 63.5159C89.8857 63.168 90.3181 62.8564 90.7895 62.5955L99.9019 57.5356C100.963 56.9463 102.11 56.6685 103.241 56.6685C105.666 56.6685 108.018 57.9482 109.278 60.2185C109.637 60.8667 109.884 61.5488 110.019 62.239Z" fill="#FFC5AB"/>
    <path d="M106.598 54.4404L97.4853 59.5002C94.157 61.3496 89.9587 60.1484 88.1094 56.8201C86.521 53.9604 87.1804 50.4636 89.5041 48.3618C89.8857 48.0139 90.3181 47.7024 90.7895 47.4414L99.9018 42.3816C100.963 41.7922 102.11 41.5144 103.241 41.5144C105.666 41.5144 108.018 42.7942 109.278 45.0645C109.637 45.7126 109.884 46.3948 110.019 47.085C110.577 49.939 109.278 52.9502 106.598 54.4404Z" fill="#F2AEA0"/>
    <path d="M110.019 47.085C109.634 47.4329 109.205 47.7444 108.733 48.0054L99.6208 53.0652C96.2898 54.9119 92.0913 53.7134 90.2422 50.3823C89.8831 49.7341 89.6387 49.052 89.5042 48.3618C89.8857 48.0139 90.3181 47.7024 90.7895 47.4414L99.9019 42.3816C100.963 41.7922 102.11 41.5144 103.241 41.5144C105.666 41.5144 108.018 42.7942 109.278 45.0645C109.637 45.7126 109.884 46.3945 110.019 47.085Z" fill="#FFC5AB"/>
    <path d="M96.8147 118.147C109.214 118.147 119.265 108.095 119.265 95.6963C119.265 83.2971 109.214 73.2456 96.8147 73.2456C84.4155 73.2456 74.364 83.2971 74.364 95.6963C74.364 108.095 84.4155 118.147 96.8147 118.147Z" fill="#09CC66"/>
    <path d="M94.0156 107.04C93.9653 107.04 93.915 107.039 93.8645 107.036C93.0922 106.996 92.3679 106.65 91.8515 106.074L82.8049 95.9937C81.7324 94.7984 81.8318 92.96 83.0271 91.8875C84.2219 90.815 86.061 90.9143 87.1333 92.1094L94.2299 100.017L108.349 87.2429C109.539 86.1658 111.378 86.2573 112.456 87.4485C113.533 88.6394 113.441 90.478 112.25 91.5557L95.9668 106.289C95.4306 106.773 94.7348 107.04 94.0156 107.04Z" fill="white"/>
  </g>
  <defs>
    <clipPath id="clip0_438_26730">
      <rect width="125" height="125" fill="white" transform="translate(0.5)"/>
    </clipPath>
  </defs>
</svg>