<svg xmlns="http://www.w3.org/2000/svg" width="126" height="125" viewBox="0 0 126 125" fill="none">
  <g clip-path="url(#clip0_438_26831)">
    <path d="M26.3621 43.1034H125.5V125H26.3621V43.1034Z" fill="#957856"/>
    <path d="M43.6035 125H125.5V43.1034C125.5 64.8237 116.872 85.6544 101.513 101.013C86.1545 116.372 65.3238 125 43.6035 125Z" fill="#806749"/>
    <path d="M21.3621 66.0776C19.7633 67.6771 17.865 68.9458 15.7756 69.8111C13.6863 70.6764 11.4468 71.1215 9.18534 71.1207H0.5V81.8966H9.17672C11.4409 81.8967 13.683 81.4508 15.7748 80.5844C17.8667 79.718 19.7675 78.448 21.3685 76.847L26.3621 71.8535V61.0776L21.3621 66.0776Z" fill="#FFAC96"/>
    <path d="M59.5733 97.8664C59.1781 98.2715 58.7054 98.593 58.1833 98.8114C57.6612 99.0299 57.1004 99.1409 56.5345 99.1379H52.2241C53.3663 99.1413 54.4606 99.5966 55.2682 100.404C56.0759 101.212 56.5311 102.306 56.5345 103.448C56.526 104.589 56.0692 105.68 55.2627 106.487C54.4561 107.293 53.3647 107.75 52.2241 107.759H43.6034C44.7456 107.762 45.8399 108.217 46.6476 109.025C47.4552 109.832 47.9104 110.927 47.9138 112.069C47.9053 113.21 47.4485 114.301 46.642 115.107C45.8355 115.914 44.744 116.371 43.6034 116.379H16.0388C14.3362 116.382 12.6712 115.879 11.2543 114.935L9.14224 113.513C7.72537 112.569 6.06031 112.066 4.35776 112.069H0.5V81.8965H9.18534C11.4468 81.8972 13.6863 81.4522 15.7756 80.5869C17.865 79.7215 19.7633 78.4529 21.3621 76.8534L34.6164 63.5991L36.1466 65.1293C37.3573 66.3416 38.0374 67.9849 38.0374 69.6983C38.0374 71.4116 37.3573 73.0549 36.1466 74.2672L31.556 78.8577L28.5172 81.8965H51.9871C52.9792 81.8762 53.9502 82.1843 54.7492 82.7728C55.5482 83.3613 56.1303 84.1973 56.4052 85.1508C56.5611 85.7866 56.571 86.4495 56.4341 87.0896C56.2972 87.7298 56.0171 88.3306 55.6148 88.847C55.2124 89.3634 54.6983 89.7819 54.1111 90.0712C53.5239 90.3605 52.8787 90.513 52.2241 90.5172H56.2974C57.2895 90.4969 58.2606 90.805 59.0595 91.3935C59.8585 91.982 60.4407 92.818 60.7155 93.7715C60.9036 94.4942 60.897 95.2537 60.6964 95.9729C60.4958 96.6922 60.1083 97.3455 59.5733 97.8664Z" fill="#FFBCAB"/>
    <path d="M46.6422 112.953C46.2471 113.358 45.7744 113.679 45.2523 113.898C44.7302 114.116 44.1694 114.227 43.6034 114.224H16.0388C14.3362 114.227 12.6712 113.724 11.2543 112.78L9.14224 111.358C7.72537 110.414 6.06031 109.911 4.35776 109.914H0.5V112.069H4.35776C6.06031 112.066 7.72537 112.569 9.14224 113.513L11.2543 114.935C12.6712 115.879 14.3362 116.382 16.0388 116.379H43.6034C44.2636 116.388 44.9168 116.243 45.5113 115.956C46.1058 115.669 46.6253 115.247 47.0286 114.724C47.4319 114.202 47.7081 113.592 47.8351 112.944C47.9622 112.296 47.9368 111.628 47.7608 110.991C47.5757 111.736 47.1886 112.414 46.6422 112.953Z" fill="#FFA087"/>
    <path d="M31.556 76.7026L26.3621 81.8966H28.5172L31.556 78.8578L36.1465 74.2673C36.8742 73.5375 37.4164 72.644 37.7276 71.6615C38.0389 70.6791 38.1101 69.6364 37.9353 68.6207C37.7179 69.9426 37.0925 71.1634 36.1465 72.1121L31.556 76.7026Z" fill="#FFA087"/>
    <path d="M125.5 43.1035H26.3621L39.2931 21.5518H112.569L125.5 43.1035Z" fill="#A78966"/>
    <path d="M88.8621 43.1035H63L67.3103 21.5518H84.5517L88.8621 43.1035Z" fill="#FFDA44"/>
    <path d="M63 43.1034H88.8621V68.9655H63V43.1034Z" fill="#FFCD00"/>
    <path d="M108.259 34.4828C117.781 34.4828 125.5 26.7635 125.5 17.2414C125.5 7.71923 117.781 0 108.259 0C98.7366 0 91.0173 7.71923 91.0173 17.2414C91.0173 26.7635 98.7366 34.4828 108.259 34.4828Z" fill="#7ED63E"/>
    <path d="M107.627 84.6832C107.223 84.2792 106.675 84.0522 106.103 84.0522C105.532 84.0522 104.984 84.2792 104.58 84.6832L98.1143 91.1487C97.7217 91.5552 97.5044 92.0996 97.5094 92.6647C97.5143 93.2297 97.7409 93.7703 98.1405 94.1699C98.5401 94.5695 99.0806 94.7961 99.6457 94.801C100.211 94.8059 100.755 94.5887 101.162 94.1961L103.948 91.4095V112.069C103.948 112.641 104.175 113.189 104.58 113.593C104.984 113.997 105.532 114.224 106.103 114.224C106.675 114.224 107.223 113.997 107.627 113.593C108.032 113.189 108.259 112.641 108.259 112.069V91.4095L111.045 94.1961C111.452 94.5887 111.996 94.8059 112.561 94.801C113.126 94.7961 113.667 94.5695 114.066 94.1699C114.466 93.7703 114.693 93.2297 114.698 92.6647C114.703 92.0996 114.485 91.5552 114.093 91.1487L107.627 84.6832Z" fill="#FF9811"/>
    <path d="M104.58 23.0755C104.984 23.4795 105.532 23.7065 106.103 23.7065C106.675 23.7065 107.223 23.4795 107.627 23.0755L116.771 13.9311C117.164 13.5246 117.381 12.9802 117.376 12.4151C117.371 11.8501 117.145 11.3095 116.745 10.9099C116.346 10.5103 115.805 10.2837 115.24 10.2788C114.675 10.2739 114.131 10.4911 113.724 10.8837L106.103 18.5044L103.056 15.4569C102.649 15.0644 102.105 14.8471 101.54 14.852C100.975 14.857 100.434 15.0836 100.035 15.4832C99.6352 15.8828 99.4086 16.4233 99.4036 16.9884C99.3987 17.5535 99.616 18.0979 100.009 18.5044L104.58 23.0755Z" fill="#F1F2F2"/>
    <path d="M56.3815 102.371C56.196 103.114 55.8089 103.792 55.2629 104.33C54.868 104.735 54.3953 105.057 53.8732 105.276C53.3511 105.495 52.7903 105.606 52.2241 105.603H37.1379V107.759H52.2241C52.8843 107.767 53.5375 107.622 54.132 107.335C54.7265 107.048 55.246 106.626 55.6493 106.104C56.0526 105.581 56.3288 104.971 56.4558 104.324C56.5829 103.676 56.5575 103.007 56.3815 102.371Z" fill="#FFA087"/>
    <path d="M56.3815 85.1293C56.196 85.8728 55.8089 86.5507 55.2629 87.0884C54.868 87.494 54.3953 87.8158 53.8732 88.0346C53.3511 88.2534 52.7903 88.3648 52.2241 88.3621H37.1379V90.5173H52.2241C52.8843 90.5261 53.5375 90.3812 54.132 90.0939C54.7265 89.8067 55.246 89.385 55.6493 88.8622C56.0526 88.3395 56.3288 87.7301 56.4558 87.0822C56.5829 86.4343 56.5575 85.7657 56.3815 85.1293Z" fill="#FFA087"/>
    <path d="M60.6918 93.75C60.5063 94.4935 60.1193 95.1714 59.5733 95.7091C59.1783 96.1146 58.7057 96.4364 58.1836 96.6553C57.6615 96.8741 57.1006 96.9855 56.5345 96.9828H37.1379V99.1379H56.5345C57.1947 99.1468 57.8479 99.0018 58.4424 98.7146C59.0368 98.4273 59.5563 98.0056 59.9596 97.4829C60.363 96.9602 60.6391 96.3507 60.7662 95.7028C60.8933 95.0549 60.8678 94.3864 60.6918 93.75Z" fill="#FFA087"/>
  </g>
  <defs>
    <clipPath id="clip0_438_26831">
      <rect width="125" height="125" fill="white" transform="translate(0.5)"/>
    </clipPath>
  </defs>
</svg>