<svg width="193" height="170" viewBox="0 0 193 170" fill="none" xmlns="http://www.w3.org/2000/svg">
<path opacity="0.41" d="M72.1482 168.102C92.98 168.102 109.868 166.114 109.868 163.663C109.868 161.211 92.98 159.224 72.1482 159.224C51.3165 159.224 34.429 161.211 34.429 163.663C34.429 166.114 51.3165 168.102 72.1482 168.102Z" fill="#AA2F26"/>
<path d="M105.438 69.9017C105.22 69.29 105.541 67.4974 105.037 67.3354C105.022 61.6157 104.637 55.8481 104.377 50.1661C104.121 44.5715 104.257 38.4775 102.154 33.1633C101.782 32.223 101.34 31.3502 100.832 30.542C100.353 28.1998 98.0965 26.1105 95.8613 25.3316C95.4484 25.1877 95.0202 25.0689 94.5844 24.9636C93.4156 24.3763 92.1519 23.8976 90.8034 23.5248C85.7479 22.127 80.2531 21.7605 75.7302 24.5274C68.9368 24.8406 62.193 25.8785 55.8898 28.4656C45.8238 32.5963 37.5757 40.0765 32.601 49.2836C32.1657 49.2934 31.7234 49.5105 31.5213 49.996C28.1047 58.1927 26.3249 67.0594 27.1379 75.8626C24.5727 75.5539 22.1265 74.5522 19.4056 75.1985C16.726 75.8351 14.2832 77.4875 13.0638 79.8856C10.2454 85.4276 12.8989 91.258 18.2075 94.2133C20.7609 95.6346 23.8057 96.5396 26.7621 96.6178C28.2043 96.656 29.6283 96.4347 30.9417 95.8441C31.5131 95.5871 32.0065 95.1378 32.564 94.8926C34.3698 94.0984 35.2672 94.7138 36.6586 95.2407C42.6593 97.5132 49.193 98.6359 55.677 98.8517C52.9126 101.877 51.6779 106.129 52.8014 110.163C53.5895 112.993 55.4604 115.662 58.0563 117.241C61.1734 119.137 63.6752 118.065 65.809 115.52C68.0215 112.881 69.6863 109.916 70.9207 106.747C72.0015 103.974 72.2293 98.6256 75.2598 97.138C76.9023 96.3318 79.0366 96.2601 80.7839 95.7122C82.6469 95.1282 84.4611 94.3591 86.2088 93.5117C89.664 91.8366 93.0433 89.8907 96.2641 87.8311C102.893 83.5914 108.349 78.0607 105.438 69.9017Z" fill="#FFD9BD"/>
<path d="M120.086 109.939C119.894 109.697 119.72 109.576 119.531 109.458C119.475 108.875 119.382 108.302 119.291 107.774C119.338 107.736 119.382 107.694 119.415 107.643C119.649 107.288 119.704 106.759 119.561 106.374C119.49 106.185 119.334 105.992 119.188 105.844C119.166 105.821 119.139 105.793 119.111 105.763C119.044 105.486 118.893 105.262 118.624 105.137C118.311 104.421 117.841 103.794 117.07 103.324C116.382 102.905 115.344 103.17 114.957 103.857C114.157 105.277 114.113 106.594 114.351 107.885C113.671 109.124 113.112 110.403 112.95 111.888C112.753 113.69 114.918 114.463 116.246 115.314C116.808 115.675 117.69 115.325 117.834 114.693C117.884 114.474 117.921 114.259 117.954 114.044C118.654 114.168 119.363 113.354 119.115 112.716C119.339 112.28 119.469 111.796 119.532 111.288C120.074 111.098 120.489 110.444 120.086 109.939ZM115.53 112.361C115.27 112.016 115.249 111.66 115.317 111.302C115.421 111.669 115.513 112.041 115.584 112.417C115.567 112.399 115.543 112.379 115.53 112.361Z" fill="#FFD9BD"/>
<path d="M68.4527 61.7061C68.8476 68.1583 65.373 70.1668 61.1468 70.6252C55.0257 71.2895 53.446 66.6249 53.446 62.2753C53.446 57.9258 56.8939 54.4946 61.1468 54.4946C65.3999 54.4948 68.1871 57.364 68.4527 61.7061Z" fill="white"/>
<path d="M88.327 67.8318C88.004 67.7392 88.1426 67.2532 88.4665 67.3461C90.4559 67.9164 92.3141 68.9039 94.2377 69.6818C97.7007 68.9737 100.356 66.7786 100.018 60.9471C99.7665 56.6052 97.1314 53.7358 93.1105 53.7358C89.0897 53.7358 85.8301 57.167 85.8301 61.5163C85.8301 63.9577 86.313 66.4867 87.7491 68.1285C88.5918 68.1957 89.4197 68.3225 90.2352 68.4963C89.6091 68.2467 88.9756 68.0178 88.327 67.8318Z" fill="white"/>
<path d="M116.145 101.634C110.999 102.899 106.411 100.364 101.625 98.9711C99.3128 98.2982 96.949 97.8 94.6189 97.1903C92.516 96.6398 90.5988 95.7231 88.5434 95.0946C86.7478 94.5457 85.2332 95.2209 83.5152 95.7776C81.0817 96.5664 78.643 97.4863 76.1265 98.0047C73.7198 98.5007 71.1351 98.5081 68.6798 98.6265C66.2845 98.7418 63.6682 98.7549 61.3633 98.0961C60.9106 97.9666 60.3666 98.3296 60.3977 98.8031C60.431 99.3095 60.1355 99.9563 59.8036 100.538C58.7522 99.6509 57.6099 98.9081 56.1994 98.667C53.3817 98.1859 50.5293 98.1475 47.7234 97.5509C47.4468 97.492 47.203 97.5173 46.9979 97.599C46.4445 97.0931 45.5596 96.9265 44.8487 97.5945C43.3479 99.0047 41.1481 100.468 40.2476 102.337C39.3405 104.22 39.8801 106.732 39.9765 108.712C40.2276 113.866 40.2762 118.907 38.2701 123.777C37.935 124.59 38.6425 125.645 39.4825 125.829C44.3306 126.89 49.7494 128.996 54.7468 128.892C54.9321 128.888 55.0959 128.855 55.2433 128.805C56.4803 129.193 57.7172 129.375 59.0553 129.357C59.1666 129.355 59.2787 129.341 59.3899 129.319C63.9086 130.099 68.7742 129.378 73.2478 128.971C75.6597 128.752 78.0676 128.433 80.4579 128.046C84.3098 127.63 88.0963 126.909 91.7463 125.671C91.7463 125.671 91.7461 125.671 91.7461 125.67C93.0413 125.346 93.2203 123.585 92.3066 122.888C92.1458 122.475 91.8019 122.111 91.2251 121.922C91.0311 121.858 90.836 121.799 90.6416 121.738C90.8156 119.214 90.8265 116.67 90.9277 114.146C90.9978 112.401 91.2439 112.599 93.0363 112.619C93.8919 112.628 94.7135 112.569 95.5342 112.484C95.7998 112.752 96.1687 112.94 96.6523 112.965C99.1098 113.092 101.561 113.279 104.014 113.458C106.573 113.644 109.508 113.462 112.002 113.942C112.647 114.066 113.306 113.77 113.494 113.128C114.203 110.705 114.583 105.182 117.212 104.068C118.683 103.444 117.618 101.272 116.145 101.634ZM64.6113 111.039C64.4346 111.271 64.2071 111.537 63.9411 111.674C63.6287 111.834 63.3985 111.855 63.1909 112.155C62.972 112.471 62.7581 112.697 62.3979 112.865C62.037 113.033 61.6505 113.141 61.2755 113.274C60.4535 113.565 59.8959 114.214 59.1748 114.662C59.0192 114.759 58.8486 114.654 58.7899 114.512C58.4383 113.663 58.3351 112.757 58.2003 111.86C58.084 111.083 57.9016 110.327 57.6591 109.577C57.1925 108.134 56.5145 106.559 56.8718 105.025C56.9262 104.791 57.2148 104.804 57.3329 104.954C58.8353 104.638 60.1754 103.879 61.0244 102.617C61.3585 102.121 61.5731 101.581 62.0259 101.164C62.3376 100.878 62.7395 100.621 63.1809 100.587C64.426 100.492 64.4222 102.124 64.3076 102.917C64.2071 103.614 63.951 104.279 63.8385 104.974C63.7135 105.744 63.8902 106.402 64.3298 107.051C64.6016 107.452 64.9849 107.867 65.0376 108.363C65.0913 108.868 64.774 109.319 64.4494 109.704C64.8527 110.075 64.9985 110.531 64.6113 111.039Z" fill="#FF7A00"/>
<path d="M47.3928 33.5506C45.3482 33.4482 44.4168 35.9925 43.4514 37.3177C43.3951 37.3949 43.3352 37.4718 43.2763 37.549C42.8017 37.435 42.2889 37.5669 42.0452 38.0866C41.7485 38.0116 41.4151 38.0395 41.0839 38.22C33.1933 42.5198 26.5756 49.2875 20.3089 55.4912C17.0976 58.6701 13.9212 61.8819 10.9697 65.2879C8.16103 68.5289 7.42089 71.8485 7.27685 75.9746C7.24646 76.8413 8.6458 77.2715 9.04775 76.4354C9.2739 75.9643 9.53022 75.5331 9.81558 75.1289C10.0817 76.3059 10.4432 77.4613 10.8828 78.6255C11.3692 79.913 12.9876 80.0957 13.801 78.9919C15.0191 77.3393 17.5574 76.1649 20.2281 75.7468C20.3881 76.0121 20.6673 76.2207 21.0865 76.3051C24.1483 76.9222 26.9122 78.0654 29.4895 79.7689C30.7634 80.6108 32.621 79.2088 32.1303 77.8178C31.2298 75.2645 30.738 72.5267 30.3284 69.864C30.2249 69.1919 30.1512 68.5119 30.0884 67.8289C30.4583 67.5619 30.7373 67.1571 30.7984 66.6513C30.9317 65.5426 30.6378 61.4526 31.2684 59.7389C31.8781 60.2977 32.4377 61.1385 32.8269 61.5679C33.7125 62.5439 35.69 61.7929 35.5755 60.4738C35.2743 57.0063 35.326 53.4441 35.544 49.9434C37.4033 49.2914 39.0846 47.3213 40.2186 46.0194C41.6245 44.4053 42.7786 42.597 43.612 40.6559C43.7014 40.5367 43.7912 40.4157 43.8794 40.3008C44.5084 39.4809 45.1113 38.6425 45.6891 37.7886C46.0516 37.2527 46.9274 35.2543 47.602 35.0345C48.4438 34.7607 48.2934 33.5957 47.3928 33.5506Z" fill="#9C5043"/>
<path d="M99.3103 28.1661C97.0515 26.5289 94.5146 25.4742 91.8008 24.7278C85.7591 23.0662 79.3903 23.3587 73.2785 24.5048C67.2621 25.6329 61.2322 27.5212 55.6551 29.9705C53.4532 30.9373 51.4883 32.0502 49.7438 33.3696C49.1354 32.9416 48.1759 32.9198 47.783 33.6961C46.2921 36.6431 44.2571 39.3692 42.2304 41.9952C40.1458 44.696 37.6218 46.7799 35.2561 49.1895C34.7328 49.0197 34.0503 49.2954 33.9913 50.0057C33.6629 53.974 33.5292 58.121 34.7228 61.9692C34.6668 62.0627 34.6251 62.1691 34.6155 62.2944C34.548 63.1743 33.7193 62.667 33.3115 62.275C32.9481 61.9256 32.6473 61.5216 32.3944 61.0913C32.4071 61.0084 32.415 60.9236 32.4284 60.841C32.5902 59.8336 31.4204 59.2548 30.7498 59.6847C30.3504 59.8123 30.0582 60.1665 30.2508 60.6575C30.2531 60.6631 30.2556 60.6688 30.2579 60.6745C29.5116 63.9355 29.1634 67.1264 29.4726 70.4771C29.7536 73.5232 30.0321 77.0344 31.4673 79.7958C31.6057 80.062 31.8765 80.1847 32.1569 80.1913C31.7586 80.769 31.9695 81.799 32.7911 82.0733C34.2009 82.5439 35.5821 83.099 37.0118 83.5071C39.169 84.1229 39.6431 85.1111 40.3449 87.0712C40.8512 88.4847 41.4335 89.8627 41.773 91.3272C42.1845 93.1041 41.9575 94.7191 42.0879 96.5017C42.1585 97.467 43.3475 97.7469 43.9191 96.9785C45.95 94.2482 45.2835 90.4445 44.5019 87.4191C44.1224 85.9506 43.6721 84.4726 42.8215 83.1995C40.6738 79.9855 36.6251 80.1928 33.1116 79.8004C33.0622 79.7949 33.0182 79.798 32.9721 79.7976C33.0468 79.6798 33.0865 79.5394 33.0704 79.3786C32.7691 76.3771 31.8042 73.5355 31.7588 70.4769C31.7248 68.184 31.83 65.8422 32.0764 63.5355C32.587 64.0118 33.1865 64.3646 33.8795 64.4797C35.1509 64.6909 36.9531 63.2587 36.114 62.1093C36.4935 58.4498 36.1308 54.7174 35.9173 51.0458C35.9269 51.0423 35.9357 51.0412 35.9453 51.0373C41.0259 48.9902 44.8625 44.9474 47.5387 40.3633C50.3256 37.4608 54.4186 35.3708 58.0318 33.8766C62.997 31.8235 68.3666 30.3071 73.6661 29.3119C78.9289 28.3235 85.3773 27.167 90.614 28.3969C94.1047 29.2169 98.6378 30.5996 101.591 32.5728C102.611 33.254 103.57 35.9158 103.751 33.5435C103.925 31.248 101.023 29.4076 99.3103 28.1661Z" fill="#FFA294"/>
<path d="M25.0801 88.4758C23.4004 87.1026 21.6785 86.1979 19.5569 85.6292C17.7972 85.1574 16.8556 87.386 18.186 88.3856C18.2175 90.1878 18.966 91.8147 20.4686 93.0356C21.9927 94.274 24.6625 95.2007 26.3726 93.7617C28.3964 92.0587 26.6403 89.7514 25.0801 88.4758Z" fill="#FFA294"/>
<path d="M84.1462 65.3959C80.67 63.21 75.4047 64.3608 72.2458 66.4992C70.9252 67.3932 72.0469 69.2484 73.5107 68.5789C75.1312 67.8377 76.9926 67.3073 78.7861 67.1501C80.418 67.0071 81.9716 67.3694 83.5882 67.376C84.7253 67.3805 85.0395 65.9574 84.1462 65.3959Z" fill="#FFA294"/>
<path d="M64.4458 108.585C63.0442 108.516 61.8465 109.5 60.4129 109.487C58.6005 109.47 57.9974 107.929 57.8307 106.42C57.7275 105.49 56.3862 105.469 56.3072 106.42C56.1643 108.147 56.3131 109.729 57.5335 110.75C57.4698 110.891 57.4358 111.051 57.4466 111.23C57.5179 112.372 57.9661 113.64 59.2899 113.868C60.0337 113.997 60.7473 113.662 61.4081 113.369C62.099 113.061 62.8931 112.738 63.4418 112.223C63.9064 111.786 64.0262 111.338 63.9071 110.98C64.4299 110.687 64.8825 110.315 65.2093 109.864C65.6163 109.302 65.0633 108.615 64.4458 108.585Z" fill="#FFA294"/>
<path d="M116.178 104.632C115.434 105.581 114.928 106.513 114.602 107.662C114.379 108.446 114.389 109.466 114.159 110.319C113.459 110.569 112.952 111.446 113.52 112.125C113.603 112.764 114.149 113.352 114.812 113.51C115.031 113.77 115.251 114.029 115.449 114.307C116.231 115.401 118.034 114.432 117.324 113.254C117.144 112.955 116.949 112.664 116.749 112.378C116.879 111.995 116.847 111.575 116.558 111.209C115.53 109.905 117.185 106.841 117.79 105.538C118.284 104.474 116.903 103.708 116.178 104.632Z" fill="#FFA294"/>
<path d="M35.1602 42.963C31.4027 44.8337 28.6072 48.0983 25.6463 50.931C23.1673 53.3028 20.4056 55.291 18.108 57.8257C17.2283 57.8004 16.3484 58.2451 16.1368 59.1782C15.9837 59.8535 15.8476 60.5265 15.728 61.1997C15.1632 60.8825 14.3761 60.9002 13.9247 61.399C13.0911 62.3202 12.4303 63.2762 11.9225 64.3051C10.8693 63.9186 9.43522 64.4056 9.17731 65.568C8.82072 67.1764 8.35098 68.7186 7.67002 70.2304C6.76518 72.2397 9.70901 74.0359 10.8098 71.9943C11.2413 71.1942 11.6274 70.3848 11.9789 69.5625C13.2086 70.1722 14.5213 69.0621 14.6265 67.8721C14.6801 67.2669 14.7896 66.6831 14.9443 66.1145C15.0596 66.432 15.1716 66.7513 15.2796 67.074C15.8694 68.8356 18.4033 68.4384 18.5492 66.6487C18.6851 64.9816 18.9666 63.3697 19.4282 61.7824C19.9791 61.5973 20.492 61.2198 20.9425 60.7031C22.5848 58.8191 24.1921 56.9384 25.9351 55.1347C29.4476 51.5 34.0054 48.8089 36.9753 44.7075C37.7845 43.5904 36.2481 42.4215 35.1602 42.963Z" fill="#8A4039"/>
<path d="M114.398 16.2047C109.902 8.66202 100.713 5.47441 92.1368 4.0537C87.5724 3.29767 82.2346 2.47079 78.0495 4.53025C76.95 5.07133 76.9705 5.15635 76.0921 4.44174C75.3447 3.83373 74.0509 5.46678 73.2533 4.90783C71.4253 3.62641 67.4428 2.88956 65.2556 2.34565C56.998 0.292077 49.7298 -0.521499 41.6343 1.52793C37.0053 2.69969 32.4502 4.35083 28.2634 6.59363C25.1752 8.24761 22.7329 10.2892 20.4748 12.6375C19.734 12.0321 18.8861 11.4623 18.108 10.9992C16.9872 10.3324 15.5046 10.2329 14.4703 11.1124C13.4829 11.9519 13.3751 13.3205 14.0928 14.3641C14.4771 14.923 15.0086 15.3429 15.5747 15.7242C12.7976 18.3317 10.8773 21.7079 9.05374 25.0213C6.44061 29.7694 4.17407 34.7566 2.78336 39.9705C1.49109 44.8132 0.226724 50.1045 0.830101 55.0824C1.15652 57.776 1.35589 58.8187 2.38526 61.0606C3.08777 63.6015 5.34773 67.1141 6.72642 69.4561C7.23725 70.3235 8.55559 70.2839 9.07594 69.4561C17.291 56.3911 30.3162 44.7674 43.4846 36.5071C55.9654 28.6781 71.0846 22.0739 86.3611 22.8426C93.9789 23.2258 102.357 27.3262 103.912 36.7206C104.349 39.3601 104.199 41.3132 105.245 39.0691C106.135 39.1661 107.704 37.4949 108.577 36.7206C111.465 34.1584 114.384 33.1499 115.464 28.8208C116.482 24.7368 116.552 19.8193 114.398 16.2047Z" fill="#FF7A00"/>
<path d="M106.572 73.3714C105.684 71.8887 103.754 71.5992 102.172 71.131C99.8182 70.4344 97.4526 69.7623 95.086 69.1086C90.7864 67.9209 86.3046 66.4958 81.7897 66.4622C77.3091 66.4289 72.859 67.8468 68.4936 68.6643C59.2452 70.3963 49.8508 71.7512 41.4308 75.9638C37.8475 76.08 34.5915 77.0852 31.4242 78.6956C29.8604 79.4909 30.9595 82.1725 32.655 81.5009C34.8474 80.6326 37.0991 80.0989 39.4158 79.7786C43.9706 83.293 44.3996 90.0439 44.6237 95.1661C44.6775 96.3952 45.6678 97.4522 46.9979 97.4479C50.1087 97.4376 53.2704 98.132 56.3855 98.2968C56.7495 98.316 57.1152 98.3336 57.4813 98.35C59.582 98.931 61.974 98.8281 64.064 98.7749C65.376 98.7415 66.6921 98.6626 68.0068 98.5486C70.8625 99.0123 73.5429 99.0615 76.4435 98.2813C77.2635 98.0607 77.6942 97.502 77.8244 96.8752C79.2583 96.5447 80.6828 96.1676 82.0925 95.7368C90.1106 93.2875 98.4141 89.8165 103.287 82.9327C104.877 80.6873 108.244 76.1627 106.572 73.3714Z" fill="white"/>
<path opacity="0.79" d="M60.1605 98.1737C60.74 97.714 61.5022 97.5348 62.0795 97.0741C62.6901 96.5867 62.8561 95.8128 62.4785 95.1391C62.1346 94.525 61.4815 94.1298 60.862 93.806C59.3127 92.9966 57.5224 92.5122 56.214 91.3265C55.5841 90.7556 55.1463 90.0213 55.0188 89.1936C54.9263 88.5925 54.9952 87.9438 55.2177 87.3741C55.4253 86.8422 55.7701 86.3916 56.104 85.9288C56.7191 85.0764 57.1422 84.0967 57.9186 83.3566L57.9191 83.3562C57.7292 83.1761 57.5573 82.981 57.4006 82.7728C57.0077 82.2507 56.7271 81.6629 56.3279 81.1447C56.0291 80.7567 55.6746 80.4203 55.3441 80.0589C55.12 79.8138 54.9138 79.5468 54.8391 79.2222C54.7393 78.7892 54.8543 78.336 54.997 77.9249C55.4929 76.4985 56.2913 75.2581 57.4026 74.2018C57.9713 73.6612 58.5833 73.1604 59.2016 72.673C59.7775 72.2191 60.4603 71.8603 61.1054 71.5067C62.6025 70.6863 64.1926 69.9802 65.7156 69.176C57.3761 70.6961 49.0091 72.1729 41.4308 75.9642C37.8475 76.0803 34.5915 77.0856 31.4242 78.6959C29.8604 79.4912 30.9595 82.1728 32.655 81.5012C34.8474 80.6329 37.0992 80.0992 39.4158 79.779C43.9706 83.2934 44.3996 90.0442 44.6237 95.1664C44.6775 96.3955 45.6678 97.4526 46.9979 97.4482C50.1087 97.438 53.2704 98.1323 56.3855 98.2971C56.7495 98.3163 57.1152 98.3339 57.4813 98.3503C58.1997 98.5489 58.9532 98.6638 59.7158 98.7318C59.8152 98.5262 59.9565 98.3357 60.1605 98.1737Z" fill="#FFCFE9"/>
<path opacity="0.79" d="M106.572 73.3713C105.684 71.8887 103.754 71.5992 102.171 71.1309C99.8178 70.4344 97.4522 69.7623 95.0856 69.1085C94.3239 68.8982 93.556 68.6804 92.7839 68.4641C91.3952 68.6126 90.0515 68.8668 88.9373 69.7348C89.7117 71.0535 91.0212 71.9735 92.3162 72.7921C93.6863 73.658 95.1409 74.4474 96.3323 75.5439C96.7807 75.9564 97.1534 76.443 97.5685 76.887C98.0254 77.3756 98.5149 77.88 98.8304 78.4684C99.3507 79.439 98.8733 80.6563 97.8142 81.0404C97.4016 81.1902 96.9488 81.2628 96.6519 81.607C96.4005 81.8982 96.269 82.3314 96.1451 82.6863C96.0508 82.9569 95.9677 83.2376 95.9419 83.523C95.8523 84.5073 96.6617 84.9967 97.4354 85.4602C98.2062 85.9219 98.9606 86.4019 99.6565 86.9511C101.001 85.7534 102.228 84.4277 103.287 82.9327C104.876 80.6872 108.244 76.1626 106.572 73.3713Z" fill="#FFCFE9"/>
<path d="M56.343 115.406C53.9707 114.243 51.2435 115.593 48.8284 116.129C47.1964 116.492 46.2475 116.166 45.0743 115.053C43.7982 113.842 42.5799 112.581 41.3522 111.325C40.1568 110.101 38.4363 111.877 39.4761 113.128C41.4271 115.477 43.4758 119.607 47.021 119.919C49.8539 120.169 55.1072 119.037 56.6866 116.666C56.9543 116.264 56.791 115.625 56.343 115.406Z" fill="#FCAC62"/>
<path d="M48.4015 105.366C47.2825 104.3 45.736 104.118 44.2393 103.874C43.5336 103.759 42.8107 104.053 42.6073 104.764C42.4294 105.386 42.8262 106.205 43.5341 106.333C43.9227 106.403 44.3053 106.491 44.686 106.577C43.8369 107.23 43.1562 108.287 42.7513 109.029C41.9898 110.424 44.1354 111.646 44.9577 110.268C45.2821 109.725 45.6516 109.244 46.1087 108.796C46.6302 108.286 47.2381 107.682 47.3095 106.952C47.31 106.946 47.3084 106.939 47.3091 106.933C47.5341 106.925 47.7602 106.907 47.9898 106.866C48.6962 106.741 48.8681 105.811 48.4015 105.366Z" fill="#FCAC62"/>
<path d="M56.9345 100.438C56.5926 99.3104 55.1876 98.7445 54.1587 98.3074C53.6127 98.0756 52.9712 98.1543 52.6459 98.6887C52.3604 99.1582 52.5053 99.8868 53.0427 100.142C53.5279 100.373 53.999 100.628 54.4504 100.916C54.9528 101.237 55.4324 101.525 56.0562 101.547C56.6444 101.567 57.096 100.97 56.9345 100.438Z" fill="#FCAC62"/>
<path d="M59.9246 101.525C58.5137 100.721 56.6457 101.851 55.4444 102.63C54.1916 103.441 55.2829 105.277 56.6349 104.587C57.2181 104.289 57.8128 104.053 58.4495 103.881C58.7458 103.801 59.0354 103.73 59.3222 103.62C59.7711 103.448 59.9999 103.177 60.2774 102.818C60.5952 102.405 60.3422 101.764 59.9246 101.525Z" fill="#FCAC62"/>
<path d="M59.9131 121.196C59.6971 120.11 59.5728 119.014 59.5082 117.911C59.4172 116.356 57.118 116.367 57.0021 117.911C56.8503 119.936 56.518 123.034 58.1472 124.594C58.7743 125.195 59.7697 124.878 60.036 124.115C60.381 123.125 60.1095 122.185 59.9131 121.196Z" fill="#FCAC62"/>
<path d="M111.211 108.893C109.407 108.189 107.282 108.158 105.359 107.938C103.226 107.694 101.094 107.452 98.9602 107.219C97.6216 107.073 95.3127 107.223 94.3801 106.559C92.7562 105.404 92.0873 101.733 91.9015 100.015C91.7384 98.5064 89.1292 97.8177 88.8611 99.6197C88.2629 103.641 88.59 110.525 93.7364 111.651C96.3398 112.22 99.2607 112.014 101.914 112.079C104.919 112.153 108.283 112.65 111.211 111.944C112.934 111.529 112.602 109.437 111.211 108.893Z" fill="#FCAC62"/>
<path d="M43.8146 33.866C42.1709 33.8124 41.1116 34.6308 39.7044 35.4092C37.9913 36.3569 36.2504 37.2592 34.4822 38.1088C31.0722 39.7473 27.4599 41.3541 23.7003 42.0812C19.3236 42.9275 15.9993 41.6831 13.4702 38.1484C11.45 35.3255 10.3627 31.7902 10.4689 28.3787C10.5029 27.2802 8.73386 26.9641 8.38658 27.966C5.74533 29.4223 4.65606 32.4592 3.77254 35.1309C2.59777 38.6836 1.94743 42.413 1.78434 46.1364C1.45452 53.6841 3.25062 61.1376 6.92736 67.8014C7.48038 68.8038 9.12513 69.0362 9.92313 68.1725C14.5374 63.1781 18.1361 57.8362 23.1723 53.2331C25.6302 50.9868 29.8457 47.6792 32.3182 45.4478C34.668 43.3271 37.2112 42.9937 39.0352 40.4416C39.3006 40.0703 39.2439 39.5872 39.0091 39.2036C39.3283 39.0228 39.649 38.8449 39.9659 38.6607C41.7618 37.6172 43.7697 36.7733 44.5967 34.852C44.8079 34.3609 44.2835 33.8813 43.8146 33.866Z" fill="#FCAC62"/>
<path d="M107.198 21.1742C102.506 16.161 94.9114 14.778 88.2111 14.8033C80.7079 14.8317 73.3846 16.6282 66.5134 19.4391C62.9099 20.9132 59.3622 22.5918 56.0225 24.5626C52.6057 26.5784 49.6701 28.9996 46.474 31.2764C44.4411 32.7246 45.335 35.0229 47.5575 33.6397C52.6683 30.4591 59.3509 28.6362 64.8502 26.1106C66.3126 25.439 67.8056 24.81 69.3209 24.2262C69.6983 24.7935 70.3638 25.1525 71.1439 24.8658C74.6923 23.562 78.3117 23.3976 82.0628 23.1554C85.7949 22.9145 89.6039 22.8668 93.26 23.7311C96.4327 24.4813 99.4163 25.9482 101.415 28.4977C103.494 31.1502 103.33 33.7278 103.877 36.8099C104.126 38.2156 106.389 38.7983 107.326 37.6852C108.14 36.719 108.62 35.6078 108.845 34.4363C111.737 30.4972 110.563 24.7695 107.198 21.1742Z" fill="#FCAC62"/>
<path d="M96.2401 151.513C96.8381 151.018 97.1965 150.257 96.9774 149.313C95.2602 141.924 93.4558 134.407 92.8299 126.843C92.7263 125.591 91.3979 124.685 90.1692 125.376C86.6576 127.352 83.2244 128.861 79.1092 129.097C74.8933 129.338 70.6621 129.425 66.4415 129.58C62.5147 129.724 58.4855 130.131 54.5597 129.946C50.7405 129.765 47.1222 127.86 43.5455 126.683C43.2048 126.571 42.8905 126.582 42.6139 126.674C41.8327 126.172 40.5749 126.82 40.7389 127.972C42.0675 137.308 43.3169 146.702 44.8256 156.01C44.9585 156.83 46.0223 157.561 46.8657 157.503C47.1585 157.483 47.4441 157.474 47.7315 157.462C47.8944 157.738 48.165 157.955 48.5543 158.039C51.9212 158.762 55.3121 159.344 58.7804 159.107C60.6095 158.982 63.8419 158.825 65.7789 157.786C65.8403 157.775 65.9014 157.766 65.9628 157.754C67.0024 157.557 67.3967 156.742 67.3352 155.924C67.3994 155.652 67.4384 155.369 67.4808 155.074C67.761 153.13 67.9277 151.157 68.1688 149.207C68.5771 145.907 68.9718 142.607 69.3563 139.304C70.2915 139.196 71.2267 139.087 72.1615 138.979C72.6188 141.383 73.2288 143.758 73.799 146.141C74.0989 147.394 74.3911 148.649 74.6698 149.906C74.9214 151.04 76.0599 153.952 75.2238 155.004C74.6268 155.755 75.4252 156.606 76.2305 156.671C76.2314 156.679 76.2327 156.687 76.2339 156.695C76.2808 156.691 76.3183 156.68 76.3636 156.675C76.4249 156.673 76.4854 156.667 76.5449 156.655C80.2343 155.915 84.2161 155.458 87.9718 155.158C90.7095 154.94 94.4418 155.702 96.6128 153.866C97.571 153.056 97.0994 151.999 96.2401 151.513Z" fill="#7C4C50"/>
<path opacity="0.24" d="M80.8206 144.921C80.7122 142.547 80.0766 139.878 80.0571 137.423C80.1065 137.381 80.1582 137.341 80.2063 137.298C80.9764 136.599 80.9161 135.001 79.8388 134.557C78.3989 133.963 77.531 134.269 77.0043 135.006C76.1485 135.4 75.3242 135.799 74.4636 136.127C73.73 136.034 72.9367 136.264 72.3833 136.72C72.0934 136.772 71.7976 136.816 71.4896 136.842C69.4757 137.011 69.402 139.945 71.4896 139.912C71.7309 139.908 71.9786 139.895 72.2245 139.885C73.5249 143.665 73.6096 147.721 75.0974 151.445C75.3748 152.139 75.766 152.627 76.2821 152.96C76.4123 153.725 76.6194 154.479 76.9708 155.219C77.7551 156.869 80.0103 156.096 80.5633 154.767C81.7735 151.861 80.961 147.984 80.8206 144.921Z" fill="#75484D"/>
<path opacity="0.24" d="M50.1656 133.608C50.7479 132.889 51.3048 132.155 51.8319 131.399C52.8865 129.886 50.3024 128.424 49.2862 129.968C48.8221 130.673 48.3364 131.364 47.8199 132.035C47.2998 132.71 46.8818 133.192 46.7672 133.986C46.1327 134.167 45.5795 134.665 45.4926 135.471C45.092 139.199 45.2281 142.9 45.6491 146.621C45.9715 149.47 46.0368 153.609 48.2514 155.702C48.8053 156.226 49.9776 156.214 50.3353 155.444C51.569 152.787 50.3346 149.333 49.8317 146.568C49.1637 142.895 48.8151 139.2 48.8833 135.471C48.8872 135.272 48.855 135.099 48.8073 134.939C49.3529 134.627 49.7362 134.138 50.1656 133.608Z" fill="#75484D"/>
<path d="M65.1789 159.926C65.1326 159.055 64.5887 158.343 63.7179 158.082C62.7949 157.805 61.9182 158.016 60.9782 158.063C59.3722 158.143 57.7419 158.096 56.1339 158.113C53.2393 158.142 50.195 158.33 47.3203 157.935C45.7778 157.723 44.9787 159.95 46.4792 161.195C48.8927 163.199 50.6055 163.068 53.7118 163.027C56.7554 162.987 60.4451 163.438 63.3742 162.583C64.3775 162.29 65.2538 161.339 65.1977 160.281C65.1914 160.163 65.185 160.044 65.1789 159.926Z" fill="white"/>
<path d="M99.6288 159.827C99.3913 158.894 98.604 158.375 97.71 158.068C97.2085 157.895 96.6623 157.817 96.1276 157.766C96.0047 157.656 95.875 157.552 95.7409 157.452C95.6969 157.136 95.6526 156.821 95.6084 156.505C95.5222 155.89 94.8145 155.566 94.2578 155.517C93.5163 155.45 92.8832 155.454 92.1433 155.534C91.3095 155.623 90.6283 156.135 90.6131 157.004C90.6142 156.946 90.5947 157.671 90.5439 158.189C87.1346 158.45 83.7106 158.662 80.2949 158.784C80.2647 158.782 80.2348 158.78 80.2046 158.777C80.1919 158.521 80.1787 158.312 80.1713 158.264C79.9598 156.835 77.7308 157.279 77.6616 158.59C77.5076 161.52 78.0706 162.953 81.1954 162.838C85.5545 162.678 89.9002 163.296 94.2633 162.924C96.1399 162.764 100.348 162.653 99.6288 159.827Z" fill="white"/>
<path d="M43.439 5.43888C42.0977 4.73517 39.9809 5.32682 38.5094 5.51191C36.5487 5.75868 34.9708 6.61456 33.3501 7.66097C31.7947 8.6653 33.1346 10.8529 34.8134 10.0668C36.3858 9.33063 37.98 8.73375 39.4971 7.88899C40.7637 7.18354 42.521 7.00783 43.5136 5.99521C43.6715 5.83411 43.6531 5.55137 43.439 5.43888Z" fill="#E8FB80"/>
<path d="M50.0732 4.47035C49.4292 4.10105 48.5397 4.22531 47.8075 4.21485C46.7008 4.19872 46.699 5.88387 47.8075 5.86774C48.5397 5.85706 49.4292 5.98153 50.0732 5.61224C50.5184 5.35652 50.5184 4.72584 50.0732 4.47035Z" fill="#E8FB80"/>
<path d="M54.4334 106.983C53.4736 106.635 52.0491 107.082 51.0461 107.205C49.8615 107.351 48.7496 107.938 47.6826 108.433C46.4717 108.994 47.3441 111.054 48.6103 110.548C49.6773 110.121 50.843 109.836 51.8288 109.255C52.7144 108.732 53.967 108.516 54.65 107.773C54.9083 107.492 54.787 107.112 54.4334 106.983Z" fill="#E8FB80"/>
<path d="M110.768 102.81C110.187 102.568 109.702 102.414 109.067 102.357C108.468 102.304 107.87 102.251 107.271 102.197C106.729 102.149 106.264 102.677 106.264 103.166C106.264 103.729 106.727 104.085 107.271 104.134L108.947 104.283C109.529 104.335 110.015 104.276 110.586 104.149C111.181 104.016 111.378 103.065 110.768 102.81Z" fill="#E8FB80"/>
<path d="M108.864 10.9573C97.9383 3.75362 84.3496 1.82954 71.8785 6.41302C58.5237 11.3215 50.1792 23.0546 41.7298 33.513C40.5401 34.9856 42.5932 37.0959 43.9188 35.6167C48.3511 30.6716 52.519 25.5028 56.9962 20.5997C61.0754 16.1326 66.0439 12.6662 71.7168 10.2839C83.281 5.42743 97.2374 6.14553 108.319 11.8541C108.938 12.1735 109.434 11.3331 108.864 10.9573Z" fill="white"/>
<path d="M41.4157 36.0948C38.26 37.9587 35.5457 40.8487 32.7747 43.2071C29.6051 45.9044 26.4371 48.6037 23.266 51.2991C17.9016 55.8581 12.0198 60.1399 8.28297 66.1162C7.88261 66.7567 8.86004 67.2596 9.30123 66.6882C13.6231 61.0919 19.3704 56.636 24.8019 52.0858C27.6117 49.7318 30.4235 47.38 33.2345 45.0272C36.2101 42.5365 39.8253 40.1502 42.3092 37.2074C42.8032 36.6219 42.1815 35.6424 41.4157 36.0948Z" fill="white"/>
<path d="M90.2886 156.578C90.0126 155.865 89.392 155.526 88.6076 155.66C86.9934 155.937 85.3884 156.033 83.7513 156.06C82.4524 156.081 81.1697 155.864 79.9244 156.245C79.7354 156.303 79.5975 156.405 79.502 156.53C78.9236 156.533 78.3467 156.553 77.7738 156.61C77.0372 156.682 76.4649 157.787 77.3396 158.15C79.3827 158.997 92.0981 161.251 90.2886 156.578Z" fill="#FFA294"/>
<path d="M44.176 49.5709C44.0102 49.3117 43.7877 49.138 43.5409 49.0242C43.413 48.7752 43.1603 48.5873 42.8475 48.6041C41.6911 48.6662 40.9296 49.5886 40.5578 50.6051C40.4682 50.7996 40.3924 50.999 40.3346 51.2002C40.2747 51.4082 40.2706 51.5974 40.3033 51.7686C40.2591 52.3421 40.3246 52.9776 40.7361 53.4202C41.1873 53.9054 41.7954 53.8838 42.2992 53.4845C43.3449 52.6556 45.085 50.991 44.176 49.5709Z" fill="white"/>
<path d="M46.1294 46.009C45.9738 45.8918 45.7975 45.8394 45.6011 45.8839C45.4382 45.921 45.2944 46.0241 45.2161 46.1664C45.122 46.338 45.1408 46.5442 45.2409 46.7093C45.3473 46.8847 45.5342 46.9791 45.7401 46.9953C45.9073 47.0084 46.067 46.8448 46.0595 46.6883C46.0559 46.6092 46.0234 46.5405 45.974 46.4871C46.045 46.4721 46.1112 46.4337 46.1521 46.3812C46.2314 46.2791 46.2464 46.0971 46.1294 46.009Z" fill="white"/>
<path d="M41.154 127.214C47.8134 129.636 54.9893 130.548 62.0769 130.777C69.1507 131.006 76.3557 130.421 83.2346 128.788C86.4938 128.014 89.7243 126.937 92.6927 125.419C93.4136 125.051 92.7802 124.081 92.0644 124.386C86.4468 126.787 80.19 127.877 74.1061 128.456C67.0296 129.13 59.7743 129.046 52.7341 128.055C48.982 127.527 45.2148 126.77 41.5895 125.696C40.5661 125.392 40.1857 126.861 41.154 127.214Z" fill="#841918"/>
<path d="M88.9313 99.4947C88.814 102.896 88.6958 106.297 88.589 109.699C88.4824 113.091 88.2667 116.511 88.4493 119.903C88.4989 120.828 89.8277 120.8 89.9235 119.903C90.2841 116.522 90.2506 113.095 90.3232 109.699C90.396 106.298 90.4576 102.896 90.5202 99.4947C90.5382 98.5104 88.9651 98.5139 88.9313 99.4947Z" fill="#841918"/>
<path d="M40.4075 126.577C41.3234 134.755 41.8367 142.973 42.9909 151.126C43.3107 153.385 43.6979 155.636 44.155 157.873C44.2378 158.279 44.6778 158.53 45.0757 158.547C47.1081 158.638 49.1288 158.906 51.163 158.966C52.5911 159.008 54.0315 159.007 55.4631 159.025C57.1496 159.046 58.8366 159.016 60.5213 158.936C62.7762 158.829 65.0287 158.62 67.2265 158.119C67.7511 157.999 67.6327 157.221 67.1001 157.222C64.5802 157.229 62.0671 157.427 59.547 157.488C57.5041 157.537 55.4599 157.511 53.4189 157.414C51.8204 157.338 50.2239 157.094 48.6254 156.966C47.4432 156.872 46.2611 156.763 45.0757 156.712C45.3826 156.936 45.6895 157.161 45.9966 157.386C44.3598 149.431 43.6351 141.332 42.7847 133.275C42.5488 131.04 42.3045 128.807 42.0293 126.577C41.908 125.596 40.2952 125.575 40.4075 126.577Z" fill="#841918"/>
<path d="M68.1725 137.8C67.8417 140.983 67.5675 144.17 67.2685 147.356C66.9716 150.519 66.4258 153.721 66.459 156.898C66.466 157.572 67.5183 157.733 67.6977 157.059C68.5229 153.962 68.5674 150.648 68.8008 147.47C69.0374 144.246 69.2476 141.021 69.5158 137.8C69.5849 136.967 68.2573 136.984 68.1725 137.8Z" fill="#841918"/>
<path d="M91.3525 125.58C92.226 130.408 93.1263 135.232 94.0173 140.057C94.4476 142.388 94.8756 144.719 95.2964 147.051C95.7229 149.414 96.1321 151.785 96.8525 154.083C97.0464 154.702 98.0894 154.612 98.059 153.926C97.9536 151.539 97.5151 149.18 97.0723 146.831C96.6263 144.464 96.1729 142.099 95.717 139.734C94.7808 134.878 93.8349 130.024 92.916 125.165C92.7293 124.178 91.1751 124.599 91.3525 125.58Z" fill="#841918"/>
<path d="M69.264 139.704C70.8736 138.835 72.521 138.033 74.2053 137.306C75.0192 136.954 75.8358 136.607 76.654 136.265C77.0895 136.083 77.5336 135.919 77.9673 135.734C78.3672 135.562 78.8413 135.359 79.0289 134.954C79.1412 134.712 79.1226 134.365 78.832 134.233C78 133.854 76.9556 134.427 76.1724 134.726C75.2739 135.069 74.39 135.434 73.5214 135.842C71.812 136.646 70.1445 137.529 68.5202 138.481C67.7106 138.956 68.4342 140.153 69.264 139.704Z" fill="#841918"/>
<path d="M70.9804 137.793C71.8673 141.448 72.7542 145.104 73.6414 148.76C73.8582 149.654 74.0749 150.547 74.2917 151.441C74.482 152.226 74.5834 153.111 74.9715 153.836C75.0648 154.011 75.175 154.183 75.3136 154.329C75.7097 154.744 75.2195 154.047 75.2383 154.052C75.1571 154.032 75.4014 153.86 75.224 154.061C75.1752 154.116 75.1494 154.284 75.1228 154.354C74.9606 154.781 74.7406 155.185 74.5778 155.611C74.429 156 74.3307 156.437 74.5508 156.821C74.8772 157.392 75.5881 157.34 76.1711 157.362C77.4205 157.411 78.6728 157.377 79.9208 157.31C82.8939 157.15 85.8559 156.791 88.7991 156.365C91.7661 155.935 94.6988 155.372 97.5882 154.595C98.2785 154.41 97.9693 153.504 97.3008 153.594C92.0217 154.302 86.7485 155.182 81.425 155.528C80.1599 155.61 78.8917 155.663 77.6235 155.656C77.0879 155.653 76.5526 155.639 76.0177 155.61C75.91 155.605 75.7484 155.565 75.6425 155.588C75.17 155.69 76.4655 156.067 76.2239 156.38C76.3205 156.255 76.3682 155.967 76.4328 155.818C76.7234 155.144 77.3388 154.181 76.8933 153.448C76.7477 153.209 76.5771 153.083 76.4798 152.814C76.3521 152.46 76.2767 152.082 76.1799 151.719C75.9431 150.831 75.7063 149.942 75.4697 149.054C74.4364 145.177 73.4034 141.301 72.3702 137.425C72.1397 136.559 70.7699 136.925 70.9804 137.793Z" fill="#841918"/>
<path d="M89.5623 96.943C93.8715 98.4529 98.258 99.7544 102.706 100.831C107.101 101.894 111.668 102.814 116.204 102.997C116.849 103.023 116.984 102.062 116.356 101.915C111.953 100.882 107.478 100.14 103.069 99.1134C98.6527 98.0849 94.2948 96.8351 90.0108 95.3795C88.9825 95.0303 88.5509 96.5888 89.5623 96.943Z" fill="#841918"/>
<path d="M115.783 103.966C114.637 104.893 114.099 106.439 113.698 107.775C113.172 109.534 112.874 111.352 112.607 113.161C112.865 112.972 113.123 112.783 113.382 112.594C106.779 113.017 100.199 112.77 93.6218 112.1C92.8481 112.021 92.6639 113.286 93.4368 113.414C100.003 114.508 106.745 114.681 113.382 114.138C113.856 114.1 114.128 113.813 114.185 113.366C114.397 111.709 114.645 110.047 115.069 108.426C115.384 107.221 115.767 105.777 116.779 104.924C117.465 104.345 116.469 103.411 115.783 103.966Z" fill="#841918"/>
<path d="M99.603 28.8776C101.725 32.8976 102.93 37.2269 103.465 41.6957C104.098 46.9741 104.211 52.2881 104.071 57.5947C103.991 60.6472 103.842 63.6986 103.751 66.751C103.733 67.3377 104.696 67.4783 104.829 66.8912C106.078 61.3864 106.264 55.7624 106.055 50.1465C105.874 45.2735 105.545 40.1827 104.075 35.4868C103.28 32.9464 102.151 30.5157 100.805 28.2023C100.365 27.446 99.1997 28.1135 99.603 28.8776Z" fill="#841918"/>
<path d="M39.472 80.5451C41.2783 82.3593 42.2974 84.8382 42.9396 87.2338C43.7655 90.3151 43.8787 93.4606 43.8612 96.6262C43.8578 97.2673 44.8708 97.4156 45.0355 96.779C45.8859 93.4933 45.5359 89.9298 44.5592 86.6986C43.7752 84.1053 42.5483 81.4585 40.5258 79.5325C39.8429 78.8815 38.8083 79.8787 39.472 80.5451Z" fill="#841918"/>
<path d="M32.024 80.9768C29.3199 77.6993 24.9819 75.4825 20.5827 75.528C16.6719 75.5686 12.6832 77.3281 11.1741 80.9744C9.63366 84.6965 11.1986 88.7535 13.6339 91.7476C15.9455 94.5896 19.2911 96.926 23.0352 97.5723C25.0901 97.927 27.1858 97.9419 29.2437 97.5959C31.1679 97.2724 32.99 96.5578 34.2038 95.0335C34.68 94.4357 33.6805 93.7632 33.149 94.2513C32.1267 95.1905 30.6205 95.6064 29.2604 95.8373C27.6962 96.103 26.0609 96.0638 24.4881 95.8872C21.2911 95.5284 18.5262 93.9415 16.3246 91.7236C14.1021 89.4845 12.1694 86.2193 12.8055 83.0125C13.4361 79.8331 16.3107 77.9989 19.5195 77.6403C23.7686 77.1657 28.0494 79.098 30.9349 82.023C31.6338 82.7312 32.6237 81.7036 32.024 80.9768Z" fill="#841918"/>
<path d="M18.7043 87.3647C21.7915 88.5289 24.5474 90.2999 27.2431 92.13C27.9365 92.6007 28.6832 91.5861 28.1263 91.0298C25.6668 88.5727 22.4707 86.9165 19.1789 85.7101C18.7284 85.5451 18.1999 85.893 18.0808 86.3094C17.9417 86.796 18.2536 87.1949 18.7043 87.3647Z" fill="#841918"/>
<path d="M25.1054 88.8139C25.0868 88.8043 25.0682 88.795 25.0494 88.7854C25.0791 88.8353 25.109 88.8852 25.1388 88.9351C25.1381 88.9162 25.1374 88.8972 25.1369 88.878C25.1315 88.7136 25.0265 88.5983 24.8718 88.5434C23.8236 88.1715 22.613 88.27 21.6299 88.7692C20.6173 89.2835 19.8685 90.1836 19.6165 91.2634C19.4736 91.8762 20.3984 92.1234 20.5957 91.5228C20.85 90.7491 21.4938 90.1084 22.2026 89.711C22.9432 89.2957 23.8 89.0457 24.6796 89.2124C24.7974 89.2347 24.9487 89.2218 25.031 89.1233C25.0494 89.1013 25.0675 89.0794 25.0859 89.0576C25.0274 89.0725 24.9689 89.0873 24.9103 89.1023C24.9312 89.1069 24.9521 89.1113 24.973 89.1159C25.1558 89.1555 25.2848 88.9053 25.1054 88.8139Z" fill="#841918"/>
<path d="M32.6982 94.9624C36.8109 96.2946 41.0608 97.9662 45.4821 97.7689C46.2002 97.7369 46.1975 96.7386 45.4821 96.6985C41.1799 96.457 37.1071 95.0221 33.0509 93.7328C32.2377 93.4743 31.8929 94.7014 32.6982 94.9624Z" fill="#841918"/>
<path d="M55.7211 104.071C52.3842 105.065 48.9288 105.758 45.7518 107.189C45.069 107.496 45.5513 108.565 46.2631 108.354C47.9645 107.849 49.6563 107.311 51.3661 106.832C52.9544 106.387 54.5513 105.971 56.1308 105.497C57.073 105.215 56.6718 103.788 55.7211 104.071Z" fill="#841918"/>
<path d="M40.0525 100.733C37.9958 105.382 38.028 110.733 40.1021 115.37C40.8831 117.116 42.0386 118.743 43.7349 119.774C45.5636 120.885 47.8608 120.975 49.9231 120.551C53.2934 119.858 56.6587 118.849 59.67 117.229C60.1703 116.96 59.8351 116.139 59.2723 116.323C56.6156 117.192 53.8825 117.957 51.1469 118.558C49.2261 118.979 47.1719 119.455 45.3207 118.525C42.1266 116.92 40.7797 112.81 40.4621 109.586C40.1874 106.797 40.5669 103.988 41.6841 101.394C42.0674 100.504 40.4481 99.8391 40.0525 100.733Z" fill="#841918"/>
<path d="M9.2498 69.0354C11.497 66.6923 13.5753 64.1951 15.7946 61.8252C18.0904 59.3736 20.4701 56.9952 22.8986 54.6647C27.7905 49.9703 32.9682 45.5424 38.3784 41.4065C41.3595 39.1278 44.3934 36.9092 47.4937 34.7823C48.2101 34.291 47.5609 33.1589 46.791 33.6269C40.9827 37.1581 35.5466 41.2193 30.3973 45.5891C25.1232 50.0647 20.1213 54.8315 15.4732 59.9083C12.9955 62.6144 10.4654 65.3917 8.42664 68.4247C8.10521 68.9033 8.84558 69.4568 9.2498 69.0354Z" fill="#841918"/>
<path d="M45.1759 35.1431C49.7206 29.4461 54.6317 23.939 60.3103 19.2519C63.0833 16.9631 66.056 14.8703 69.2759 13.1976C72.5892 11.4762 76.1433 10.1698 79.7933 9.28185C87.1472 7.49314 95.0517 7.50644 102.208 10.0784C108.706 12.4141 114.786 17.4469 114.996 24.569C115.046 26.2288 114.763 27.9227 114.03 29.4361C113.532 30.4646 112.791 31.3833 112.039 32.2507C110.189 34.3854 108.083 36.3587 105.872 38.1468C105.491 38.4544 105.103 38.7724 104.683 39.0294C103.965 39.4687 104.63 40.5727 105.353 40.1304C107.756 38.661 109.885 36.8656 111.862 34.8981C114.002 32.768 115.898 30.5333 116.518 27.5558C117.25 24.0427 116.469 20.3014 114.598 17.2221C112.723 14.135 109.765 11.7422 106.521 10.0577C99.516 6.42123 91.1867 5.66868 83.4138 6.85483C75.5782 8.05035 68.1821 11.2347 61.9356 15.9111C55.7158 20.5671 50.4534 26.3389 45.6443 32.3104C45.0725 33.0205 44.5063 33.7342 43.9454 34.4521C43.3921 35.1595 44.6268 35.8314 45.1759 35.1431Z" fill="#841918"/>
<path d="M45.546 35.2908C53.7399 32.0153 61.7617 28.1431 70.3662 25.9289C74.5267 24.8583 78.7928 24.2145 83.1079 24.2699C85.3544 24.2987 87.5955 24.5073 89.804 24.9043C91.9181 25.2843 94.1506 25.7201 96.1174 26.582C97.8473 27.34 99.3682 28.4499 100.544 29.89C101.789 31.4136 102.486 33.2125 103.429 34.9016C103.781 35.531 104.628 35.0588 104.537 34.4528C104.022 31.0277 101.525 27.7579 98.5305 25.918C96.7923 24.85 94.8172 24.2512 92.8306 23.7716C90.5131 23.2117 88.134 22.8527 85.7516 22.6807C76.6419 22.0236 67.8615 24.5653 59.5394 27.882C54.6459 29.8322 49.8509 32.0002 44.9778 33.9958C44.2188 34.3069 44.773 35.5999 45.546 35.2908Z" fill="#841918"/>
<path d="M41.1092 37.541C42.6356 34.4724 44.5637 31.5889 46.619 28.8258C48.8823 25.7829 51.3406 22.8684 53.9702 20.1109C59.1736 14.6548 65.2836 9.82845 72.3812 6.84227C74.9936 5.74311 77.776 4.84189 80.618 4.50748C82.8394 4.24609 85.0927 4.21688 87.3261 4.32305C92.527 4.57026 97.8156 5.54211 102.616 7.5183C107.14 9.38046 111.606 12.3161 113.7 16.7581C113.957 17.3026 114.168 17.8651 114.348 18.4371C114.497 18.9115 115.249 18.7151 115.122 18.232C113.814 13.2685 109.96 9.7103 105.368 7.37288C100.532 4.91121 95.0081 3.69913 89.5913 3.20514C84.7012 2.75932 79.8186 2.93852 75.1361 4.4497C67.492 6.91661 60.7319 11.6121 55.1357 17.1208C52.4346 19.7798 49.9417 22.6352 47.6046 25.5937C45.2791 28.5376 43.0856 31.6055 41.2455 34.8548C40.8493 35.5546 40.4727 36.2642 40.1186 36.9847C39.806 37.6217 40.7903 38.1822 41.1092 37.541Z" fill="#841918"/>
<path d="M73.7818 4.79915C67.3847 1.04429 59.7111 -0.072091 52.3232 0.00355549C48.5736 0.0421418 44.8111 0.230711 41.1652 1.12997C37.4492 2.04645 33.8879 3.51185 30.5033 5.23406C26.5855 7.22768 22.9332 9.60455 19.3939 12.1613C18.7062 12.6581 19.3157 13.7634 20.0885 13.3032C26.4682 9.50231 32.92 5.48324 40.1991 3.47196C43.715 2.50055 47.2666 2.1561 50.9107 2.0447C54.4606 1.93614 58.0593 1.9756 61.5791 2.47133C65.5845 3.03552 69.4563 4.17567 72.9471 6.17212C73.8644 6.69707 74.6899 5.33216 73.7818 4.79915Z" fill="#841918"/>
<path d="M16.5663 15.4742C10.843 21.3297 6.51753 28.5022 3.45028 35.9459C1.96997 39.5383 0.756618 43.2291 0.26575 47.0742C-0.211054 50.8094 -0.0540621 54.6303 0.799967 58.306C1.75221 62.4045 3.62857 66.3272 6.61529 69.4217C7.16559 69.992 8.26596 69.2161 7.76012 68.5728C3.174 62.7402 1.26746 55.598 1.89216 48.3456C2.20564 44.7064 3.20485 41.1615 4.44517 37.7215C5.79234 33.9854 7.48225 30.3635 9.47658 26.9051C11.6841 23.0768 14.2809 19.4706 17.3888 16.2642C17.898 15.7389 17.0803 14.9484 16.5663 15.4742Z" fill="#841918"/>
<path d="M8.58431 67.7632C7.06815 70.7004 6.51898 73.9628 7.00509 77.2064C7.11351 77.9297 8.09343 77.8356 8.44207 77.3869C9.49548 76.0316 10.3938 74.5969 11.1577 73.0731C10.7032 72.9547 10.2484 72.8363 9.7938 72.718C9.5715 74.5027 9.86977 76.371 10.8399 77.9217C11.1747 78.4566 12.1914 78.1046 11.9326 77.4789C11.3306 76.0226 10.9753 74.4718 11.2314 72.905C11.2886 72.5545 11.1686 72.2214 10.8077 72.0751C10.4865 71.9449 10.0646 72.0515 9.89359 72.3628C9.07676 73.8498 8.13109 75.2771 7.08403 76.6241C7.5631 76.6843 8.04217 76.7444 8.52101 76.8046C8.09774 73.9793 8.5462 71.0352 9.81442 68.4545C10.2025 67.6653 8.99443 66.9688 8.58431 67.7632Z" fill="#841918"/>
<path d="M15.9518 16.5149C16.0153 15.4528 15.5379 14.5054 15.2303 13.5133C15.1688 13.3147 15.1196 13.1154 15.0815 12.9116C15.0658 12.8176 15.0642 12.8096 15.0771 12.8876C15.0715 12.8357 15.0674 12.7836 15.0642 12.7315C15.0583 12.6271 15.0572 12.5222 15.0617 12.4178C15.0735 12.1451 15.14 11.8794 15.2777 11.6627C15.3033 11.6223 15.3305 11.5831 15.3595 11.5452C15.3151 11.6016 15.3117 11.6092 15.3491 11.5683C15.3784 11.5404 15.5646 11.4061 15.433 11.4863C15.4741 11.4599 15.5165 11.4359 15.5603 11.4139C15.4802 11.441 15.4859 11.4388 15.5773 11.4076C15.7441 11.3623 15.6088 11.3797 15.7787 11.3664C16.2306 11.3306 16.7357 11.6036 17.1388 11.7926C17.666 12.0396 18.19 12.2944 18.7203 12.5349C19.3105 12.8026 19.9012 12.9914 20.5293 13.156C20.9943 13.2776 21.4491 12.6515 21.0313 12.3271C20.6003 11.9925 20.1775 11.6738 19.7011 11.4C19.2536 11.1427 18.7825 10.9188 18.3227 10.6819C17.3827 10.197 16.4109 9.64397 15.3017 9.86633C13.5805 10.2112 13.1581 12.2837 13.6102 13.672C13.9158 14.6098 14.53 15.5078 14.5266 16.5154C14.5239 17.402 15.8997 17.3896 15.9518 16.5149Z" fill="#841918"/>
<path d="M33.5574 47.3457C33.5038 52.4895 33.4503 57.6332 33.3968 62.777C33.8427 62.5995 34.2889 62.4218 34.7349 62.2444C33.4848 60.9111 32.1825 59.6201 30.9054 58.3108C30.4295 57.8229 29.7248 58.2458 29.6578 58.8074C29.5204 59.9597 29.4362 61.1162 29.4167 62.2762C29.3986 63.3532 29.3444 64.6075 29.7055 65.6404C29.8481 66.0487 30.5527 66.129 30.6532 65.6404C30.8685 64.5934 30.7598 63.4606 30.7986 62.3961C30.8399 61.2586 30.9345 60.1222 31.0935 58.994C30.6863 59.0973 30.2791 59.2007 29.872 59.304C31.1216 60.6397 32.3499 61.9978 33.6265 63.3098C34.0938 63.7898 34.9694 63.4168 34.9646 62.777C34.927 57.6332 34.8891 52.4895 34.8514 47.3457C34.8455 46.5455 33.5657 46.5444 33.5574 47.3457Z" fill="#841918"/>
<path d="M27.8543 66.8088C28.1027 69.0784 28.4432 71.3385 28.89 73.58C29.3224 75.7495 29.6742 78.1691 30.7435 80.1462C30.9978 80.6164 31.8597 80.4147 31.8119 79.868C31.6218 77.7034 30.8077 75.569 30.3415 73.4461C29.8595 71.2508 29.4778 69.0362 29.1976 66.8086C29.0955 65.9985 27.7633 65.9774 27.8543 66.8088Z" fill="#841918"/>
<path d="M25.8004 72.8269C26.3736 75.5026 27.5971 78.3251 29.7307 80.189C30.1606 80.5646 30.9059 80.08 30.5668 79.569C30.2043 79.0227 29.8675 78.4628 29.5036 77.917C29.1255 77.3497 28.7698 76.7735 28.4589 76.1695C27.8553 74.9966 27.4243 73.7507 27.143 72.4711C26.9574 71.6283 25.62 71.9858 25.8004 72.8269Z" fill="#841918"/>
<path d="M39.0286 42.3331C37.8906 45.3468 35.8938 48.0254 33.4324 50.1749C32.8814 50.6562 33.6746 51.3623 34.2315 50.9429C37.0592 48.813 39.1023 45.9103 40.3238 42.676C40.6191 41.8941 39.3217 41.557 39.0286 42.3331Z" fill="#841918"/>
<path d="M41.8791 41.9178C40.5481 44.1646 38.8271 46.1974 36.906 48.0029C36.4637 48.4186 37.1195 49.028 37.5779 48.6484C39.6981 46.8924 41.3828 44.7464 42.6855 42.3706C42.9647 41.8611 42.1779 41.4136 41.8791 41.9178Z" fill="#841918"/>
<path d="M45.9612 158.594C44.7095 160.024 45.5728 162.047 47.2226 162.769C48.1349 163.169 49.1414 163.233 50.1297 163.275C51.3734 163.328 52.6171 163.374 53.8615 163.408C56.349 163.478 58.8369 163.567 61.3251 163.612C62.6983 163.637 64.2249 163.459 65.0712 162.283C65.9409 161.075 65.7907 158.924 65.1089 157.681C64.9356 157.365 64.4996 157.548 64.4678 157.847C64.342 159.04 65.0064 160.823 63.8996 161.768C63.4158 162.181 62.7448 162.306 62.1172 162.301C60.9551 162.293 59.7833 162.175 58.6226 162.112C56.1351 161.977 53.6481 161.828 51.1591 161.724C50.1476 161.682 49.0137 161.753 48.056 161.382C47.5161 161.172 46.5924 160.355 47.1425 159.729C47.8328 158.945 46.6544 157.803 45.9612 158.594Z" fill="#841918"/>
<path d="M76.1167 156.839C76.177 157.243 76.2789 157.658 76.5751 157.967C76.6919 158.089 76.9789 158.234 77.0238 158.296C77.274 158.641 77.2046 159.363 77.2379 159.767C77.2967 160.48 77.3595 161.199 77.4933 161.903C77.5464 162.183 77.6104 162.462 77.7406 162.719C77.7968 162.83 77.8476 162.947 77.942 163.036C78.2042 163.285 77.9645 162.772 77.9654 162.768C77.8665 163.227 78.1028 163.625 78.5642 163.781C78.8224 163.868 79.1864 163.825 79.4546 163.848C79.7646 163.874 80.0745 163.899 80.3848 163.923C81.1517 163.98 81.9182 164.015 82.6869 164.039C84.4816 164.098 86.2836 164.146 88.0785 164.083C89.9345 164.019 91.7882 163.913 93.6325 163.698C95.0729 163.529 96.5431 163.351 97.9109 162.864C98.5766 162.627 100.143 162.048 99.6881 161.115C99.6219 160.979 99.4157 160.974 99.3152 161.069C98.8123 161.545 98.132 161.745 97.4309 161.877C96.1143 162.125 94.7579 162.219 93.4202 162.278C90.0132 162.43 86.5787 162.375 83.1701 162.286C82.3743 162.265 81.5791 162.232 80.7833 162.212C80.4383 162.204 80.0935 162.194 79.7488 162.181C79.5884 162.175 79.428 162.166 79.2679 162.162C79.1059 162.157 78.6388 162.082 79.0202 162.192C79.2198 162.53 79.4194 162.868 79.619 163.206C79.6675 162.909 79.6628 162.677 79.521 162.402C79.3745 162.118 79.2431 162.037 79.1726 161.827C78.9514 161.169 78.8772 160.45 78.7867 159.767C78.7019 159.125 78.698 158.389 78.4016 157.799C78.2466 157.49 78.0466 157.317 77.7678 157.116C77.5108 156.93 77.5178 156.859 77.4439 156.488C77.274 155.64 75.994 156.017 76.1167 156.839Z" fill="#841918"/>
<path d="M94.843 154.61C94.8668 154.713 94.8895 154.817 94.909 154.921C94.9176 154.967 94.9247 155.013 94.9328 155.058C94.9596 155.205 94.9174 154.911 94.9306 155.042C94.9442 155.175 94.9555 155.307 94.9519 155.441C94.9505 155.494 94.9458 155.547 94.9419 155.6C94.9312 155.745 94.9768 155.395 94.9449 155.577C94.9292 155.665 94.9086 155.752 94.8906 155.839C94.8389 156.091 94.7983 156.353 94.8155 156.61C94.8287 156.805 94.872 157.02 94.9344 157.207C94.9805 157.345 95.058 157.494 95.1508 157.61C95.2631 157.749 95.4117 157.808 95.5793 157.864C95.7247 157.912 95.9048 157.857 96.0096 157.755C96.1151 157.651 96.2085 157.545 96.2562 157.403C96.2902 157.302 96.2999 157.121 96.2995 157.008C96.2986 156.86 96.292 156.71 96.2859 156.562C96.2814 156.453 96.2811 156.345 96.2916 156.236C96.3099 156.046 96.2614 156.408 96.2863 156.265C96.2943 156.22 96.3025 156.174 96.3108 156.128C96.3551 155.887 96.3964 155.643 96.3907 155.398C96.3816 155.012 96.2995 154.624 96.2015 154.251C96.1115 153.907 95.6916 153.667 95.335 153.778C94.9566 153.895 94.7573 154.239 94.843 154.61Z" fill="#841918"/>
<path d="M95.2159 157.748C95.6333 158.254 96.3093 158.376 96.9326 158.476C97.0823 158.5 97.2318 158.525 97.3795 158.559C97.45 158.576 97.5203 158.594 97.5897 158.615C97.6224 158.624 97.655 158.635 97.6873 158.646C97.7204 158.657 97.8708 158.715 97.7422 158.663C97.6101 158.61 97.756 158.671 97.7816 158.683C97.8134 158.699 97.8449 158.715 97.876 158.731C97.9121 158.751 97.9474 158.771 97.9821 158.793C98.0098 158.81 98.1466 158.908 98.0413 158.828C97.9359 158.749 98.0491 158.836 98.072 158.856C98.106 158.885 98.1391 158.914 98.1709 158.945C98.2389 159.011 98.2988 159.084 98.3635 159.152C98.4367 159.23 98.3306 159.113 98.3258 159.104C98.339 159.13 98.3666 159.157 98.3843 159.182C98.4202 159.231 98.4542 159.282 98.4864 159.334C98.5576 159.448 98.618 159.567 98.6765 159.688C98.6908 159.717 98.7176 159.799 98.6681 159.668C98.6801 159.7 98.6939 159.731 98.7064 159.763C98.7425 159.855 98.7731 159.948 98.8128 160.038C98.892 160.218 99.0011 160.387 99.0889 160.564C99.1873 160.762 99.4711 160.851 99.6809 160.795C99.9091 160.735 100.056 160.532 100.066 160.31C100.081 159.969 100.064 159.654 99.9542 159.328C99.8633 159.058 99.749 158.789 99.602 158.543C99.3651 158.147 99.0242 157.81 98.6087 157.585C98.0046 157.258 97.3563 157.241 96.6996 157.097C96.6252 157.081 96.5511 157.062 96.4787 157.039C96.4447 157.028 96.4086 157.008 96.3737 157.002C96.3719 157.002 96.5447 157.084 96.4694 157.04C96.4522 157.03 96.4324 157.023 96.4145 157.014C96.3818 156.998 96.3512 156.979 96.3192 156.962C96.202 156.899 96.3177 156.959 96.3476 156.989C96.2907 156.933 96.2296 156.885 96.1775 156.824C95.952 156.558 95.4473 156.582 95.2161 156.824C94.943 157.11 94.9793 157.461 95.2159 157.748Z" fill="#841918"/>
<path d="M44.1381 75.6231C52.587 73.3526 61.1175 71.3431 69.6682 69.4604C72.8203 68.7665 75.9767 68.0683 79.1526 67.4812C79.6228 67.3942 80.0939 67.3101 80.5667 67.2368C80.6617 67.2222 81.21 67.1516 80.9128 67.1849C81.0385 67.1708 81.1642 67.1546 81.2907 67.1472C83.4885 67.0203 85.7941 67.4267 87.9372 67.8488C90.9175 68.4358 93.8501 69.2566 96.7445 70.1511C98.1613 70.589 99.5708 71.0481 100.978 71.5136C102.364 71.972 103.749 72.5295 105.206 72.7311C105.775 72.8098 106.193 72.1039 105.622 71.7817C104.521 71.1589 103.294 70.7778 102.097 70.3586C100.813 69.9089 99.5275 69.4624 98.2368 69.0303C95.6346 68.1594 93.0089 67.3338 90.3314 66.7014C86.9085 65.8928 83.2124 65.1305 79.6902 65.711C76.7631 66.1935 73.8619 66.8396 70.9702 67.4845C66.6822 68.4406 62.4064 69.4476 58.1398 70.4885C53.3199 71.6644 48.5092 72.8802 43.7284 74.1963C42.778 74.4579 43.1806 75.8804 44.1381 75.6231Z" fill="#841918"/>
<path d="M99.8602 74.2585C100.655 74.4495 101.449 74.6405 102.244 74.8316C103.046 75.0246 103.844 75.1667 104.662 75.2831C105.217 75.3623 105.443 74.6514 104.897 74.4634C104.12 74.1964 103.349 73.9614 102.548 73.7689C101.754 73.5779 100.959 73.387 100.165 73.1958C99.4489 73.0238 99.1436 74.0861 99.8602 74.2585Z" fill="#841918"/>
<path d="M45.489 98.2289C50.0152 98.9566 54.6147 99.2007 59.1979 99.2193C59.814 99.2217 59.9934 98.252 59.3481 98.1526C54.8869 97.4646 50.3473 97.5376 45.8809 96.8629C44.9557 96.7231 44.5506 98.0782 45.489 98.2289Z" fill="#841918"/>
<path d="M105.154 72.9185C106.606 78.7086 102.637 84.0396 98.1447 87.4563C93.4612 91.0182 87.8494 93.6382 82.2032 95.4467C78.9323 96.4944 75.5822 97.318 72.1867 97.8971C71.6995 97.9801 71.8072 98.7689 72.3042 98.732C78.7967 98.2504 85.1033 96.4733 90.9187 93.6691C93.7475 92.3051 96.4904 90.7268 98.9976 88.8664C101.417 87.0711 103.679 84.9249 105.145 82.3185C106.82 79.3397 107.533 75.8397 106.638 72.525C106.389 71.6026 104.921 71.9924 105.154 72.9185Z" fill="#841918"/>
<path d="M103.728 67.3272C103.989 68.3595 104.249 69.3917 104.51 70.4237C104.64 70.9382 104.749 71.4634 104.902 71.972C105.054 72.481 105.254 72.9815 105.43 73.484C105.68 74.2008 106.693 73.8976 106.583 73.1786C106.502 72.6508 106.441 72.1156 106.339 71.5913C106.237 71.0712 106.085 70.5554 105.958 70.0402C105.704 69.0063 105.451 67.9721 105.197 66.9381C104.972 66.0223 103.496 66.4101 103.728 67.3272Z" fill="#841918"/>
<path d="M61.0406 55.459C57.7774 55.459 55.1318 58.7279 55.1318 62.7603C55.1318 63.6234 55.2593 64.4478 55.4821 65.2163C55.7697 64.4694 56.3318 63.8226 57.1636 63.6351C57.6159 63.5331 58.0999 63.6029 58.4808 63.866C58.9637 64.2 59.2309 64.7397 59.3627 65.285C59.4889 65.806 59.5775 66.3558 59.4033 66.877C59.2638 67.2958 58.9844 67.6442 58.6119 67.8964C58.205 68.1722 57.7039 68.3045 57.2031 68.3056C58.2361 69.398 59.5746 70.0616 61.0406 70.0616C64.3041 70.0616 66.9496 66.7927 66.9496 62.7603C66.9496 58.7279 64.3041 55.459 61.0406 55.459Z" fill="#841918"/>
<path d="M93.4545 54.4849C90.3022 54.4849 87.734 57.5375 87.5623 61.3796C87.9549 61.0038 88.4464 60.7339 88.9956 60.9085C89.7033 61.1335 90.0792 61.8917 90.2956 62.5219C90.5524 63.2701 90.6615 64.1037 90.5601 64.8877C90.48 65.5048 90.2312 66.3058 89.5067 66.4645C89.3055 66.5085 89.1036 66.495 88.9083 66.4483C89.9921 68.0602 91.626 69.0872 93.4547 69.0872C96.718 69.0872 99.3635 65.8183 99.3635 61.786C99.3633 57.7538 96.7177 54.4849 93.4545 54.4849Z" fill="#841918"/>
<path d="M88.1149 54.5035C89.2436 52.3265 91.8518 50.6331 94.4581 51.1417C96.7924 51.5971 99.0594 53.3058 99.2704 55.7012C99.3364 56.4515 100.399 56.6329 100.654 55.8812C101.182 54.3245 100.382 52.7568 99.3071 51.6008C98.2403 50.453 96.6291 49.6296 95.0724 49.3061C91.5743 48.5788 88.0237 50.5555 86.5874 53.6456C86.1319 54.6256 87.6002 55.4965 88.1149 54.5035Z" fill="#841918"/>
<path d="M68.4301 53.3505C64.933 48.4097 57.0239 49.3327 53.4577 53.7272C52.3757 55.0605 51.7376 56.7151 51.8549 58.4105C51.905 59.1367 53.0455 59.3723 53.2383 58.5906C53.8081 56.2806 55.0575 54.3005 57.2304 53.0878C59.2063 51.9847 61.6976 51.5635 63.907 52.204C65.1798 52.5729 66.3207 53.3064 67.1696 54.2855C67.7493 54.9539 68.9425 54.0742 68.4301 53.3505Z" fill="#841918"/>
<path d="M42.8809 74.5381C40.7532 75.2375 38.6046 75.8743 36.4962 76.6272C35.4231 77.0105 34.3604 77.4195 33.309 77.855C32.7194 78.0992 32.1326 78.3512 31.553 78.6167C30.9379 78.8986 30.3077 79.1657 29.9155 79.7185C29.6474 80.0961 30.0067 80.5875 30.4388 80.5949C31.0547 80.6056 31.6064 80.2964 32.1492 80.0444C32.7315 79.7741 33.3101 79.4981 33.8981 79.2393C34.9458 78.7783 36.0088 78.3516 37.0824 77.9492C39.1205 77.1853 41.1801 76.476 43.2162 75.7068C43.9554 75.4278 43.6617 74.2816 42.8809 74.5381Z" fill="#841918"/>
<path d="M32.2173 81.7488C34.118 81.4545 36.0163 81.2433 37.9283 81.0453C38.9311 80.9416 39.9261 80.9204 40.8282 80.4463C41.1693 80.2668 41.1405 79.642 40.7109 79.583C39.7573 79.4524 38.8014 79.5156 37.841 79.5817C35.8394 79.7192 33.8342 80.1642 31.8778 80.5646C31.0625 80.7318 31.4211 81.8722 32.2173 81.7488Z" fill="#841918"/>
<path d="M43.5965 82.2083C44.8654 81.6361 46.1468 81.0893 47.4429 80.5764C48.096 80.318 48.7538 80.0719 49.4039 79.8066C50.0538 79.5415 50.6966 79.3207 51.2716 78.9211C51.5683 78.7148 51.5096 78.1574 51.065 78.1877C50.3065 78.2392 49.6405 78.4788 48.928 78.7216C48.2661 78.9472 47.6185 79.2101 46.9711 79.4713C45.626 80.0141 44.294 80.5859 42.9766 81.1887C42.2618 81.5159 42.8854 82.5292 43.5965 82.2083Z" fill="#841918"/>
<path d="M44.1925 83.028C44.3762 83.0967 44.5597 83.0634 44.7502 83.0455C44.9526 83.0265 45.1517 83.0025 45.3518 82.9672C45.7113 82.9038 46.0711 82.8406 46.4306 82.7771C47.1776 82.6455 47.9205 82.5072 48.6327 82.248C48.8192 82.1802 48.9517 82.0257 48.9201 81.8249C48.8927 81.649 48.728 81.4748 48.5259 81.4905C47.7429 81.5517 46.9861 81.7294 46.2294 81.9243C45.8642 82.0185 45.4988 82.1127 45.1336 82.2066C44.9426 82.2559 44.7595 82.3172 44.5735 82.3817C44.3921 82.4447 44.2199 82.4935 44.0838 82.633C43.9486 82.7721 44.021 82.9637 44.1925 83.028Z" fill="#841918"/>
<path d="M47.1041 92.9537C49.2458 92.6125 51.4073 92.5857 53.5729 92.5879C54.1582 92.5885 54.1214 91.8037 53.5729 91.7379C51.3368 91.4693 49.0607 91.6812 46.8516 92.0734C46.2475 92.1804 46.5079 93.0485 47.1041 92.9537Z" fill="#841918"/>
<path d="M48.0018 93.5803C48.0844 93.7517 48.2099 93.7737 48.3843 93.8186C48.5313 93.8565 48.6776 93.8971 48.8268 93.9261C49.1045 93.9799 49.3842 94.0266 49.6625 94.0767C50.2554 94.1836 50.845 94.2649 51.4443 94.3322C51.8363 94.3763 51.9265 93.7388 51.538 93.6673C50.9452 93.5585 50.357 93.4692 49.758 93.3998C49.4769 93.3674 49.1961 93.332 48.9149 93.3022C48.7642 93.2863 48.6122 93.2832 48.4607 93.2769C48.2815 93.2693 48.1568 93.2601 48.0264 93.399C47.9758 93.4528 47.9712 93.5167 48.0018 93.5803Z" fill="#841918"/>
<path d="M55.7099 104.778C55.9109 106.721 56.2133 108.654 56.6338 110.564C57.0394 112.407 57.4273 114.473 58.5224 116.069C58.7629 116.419 59.4425 116.32 59.4075 115.838C59.2732 113.989 58.5404 112.19 58.1044 110.392C57.6552 108.541 57.3139 106.666 57.0857 104.778C56.9852 103.947 55.6217 103.925 55.7099 104.778Z" fill="#841918"/>
<path d="M57.5133 105.527C58.204 105.295 58.8804 105.015 59.5276 104.687C59.8331 104.532 60.1266 104.367 60.4084 104.174C60.5708 104.063 60.7507 103.953 60.8904 103.818C61.0199 103.692 61.1338 103.545 61.2499 103.408C61.6351 102.952 61.1673 102.356 60.6048 102.604C60.5293 102.637 60.4535 102.67 60.3775 102.702C60.3394 102.719 60.3011 102.734 60.2628 102.75C60.3199 102.727 60.3149 102.729 60.2473 102.756C60.055 102.833 59.8941 102.934 59.7179 103.039C59.435 103.207 59.1538 103.379 58.8677 103.543C58.5819 103.706 58.2897 103.86 57.9921 104.002C57.8436 104.073 57.6934 104.142 57.5421 104.208C57.4666 104.241 57.3906 104.273 57.3144 104.304C57.4173 104.262 57.1978 104.35 57.1778 104.358C56.8732 104.477 56.6241 104.767 56.7373 105.104C56.8369 105.399 57.1798 105.639 57.5133 105.527Z" fill="#841918"/>
<path d="M61.7847 103.118C61.9931 102.512 62.4826 101.05 63.4467 101.393C63.9439 101.57 63.5515 102.273 63.4433 102.605C63.2421 103.223 63.0853 103.852 62.9801 104.492C62.824 105.44 62.4525 106.794 63.5751 107.306C63.9634 107.483 64.3549 107.628 64.376 108.113C64.3944 108.535 63.9367 108.975 63.483 108.908C63.5327 109.273 63.5823 109.638 63.6318 110.003C63.7491 109.948 63.892 110.091 63.9283 110.185C64.0013 110.373 63.84 110.622 63.7237 110.762C63.3857 111.168 62.8063 111.315 62.3136 111.464C61.5526 111.695 61.8659 112.817 62.6446 112.618C63.8214 112.317 65.1979 111.747 65.2323 110.379C65.2605 109.258 64.0512 108.467 63.003 108.968C62.5537 109.183 62.6196 109.99 63.1518 110.063C64.6963 110.275 66.149 109.077 65.6288 107.512C65.5179 107.179 65.3122 106.859 65.0468 106.619C64.9358 106.519 64.7984 106.419 64.6673 106.345C64.5407 106.273 64.2179 106.227 64.131 106.12C64.0637 106.038 64.2331 105.232 64.2581 105.056C64.3254 104.579 64.4246 104.105 64.5423 103.638C64.7394 102.856 65.2019 101.988 64.9254 101.175C64.7136 100.552 64.0895 100.183 63.4331 100.128C61.7466 99.9866 61.0572 101.521 60.7263 102.838C60.56 103.501 61.5637 103.761 61.7847 103.118Z" fill="#841918"/>
<path d="M62.8146 112.001C62.079 112.368 61.3433 112.734 60.6077 113.101C60.2398 113.284 59.8739 113.469 59.5234 113.682C59.2975 113.82 59.0714 113.964 58.9364 114.19C58.8189 114.388 58.7082 114.631 58.8409 114.849C58.972 115.064 59.2435 115.095 59.4788 115.099C59.7544 115.103 60.0023 114.984 60.2441 114.867C60.615 114.688 60.9675 114.482 61.3204 114.272C62.0252 113.855 62.73 113.438 63.4345 113.02C63.7081 112.859 63.8376 112.485 63.655 112.213C63.4672 111.933 63.1201 111.849 62.8146 112.001Z" fill="#841918"/>
<path d="M38.9689 114.061C38.9373 116.369 38.8266 118.677 38.4263 120.955C38.1373 122.6 37.8327 124.222 37.7254 125.891C37.7059 126.193 37.9767 126.545 38.2909 126.604C39.4579 126.827 40.6123 127.087 41.8011 127.158C42.544 127.202 42.5869 126.202 41.9665 125.983C40.9083 125.608 39.8004 125.412 38.7001 125.177C38.8886 125.415 39.0771 125.653 39.2656 125.891C39.3892 124.287 39.6895 122.712 39.9213 121.122C40.2625 118.779 40.3371 116.424 40.3117 114.061C40.3031 113.231 38.9802 113.229 38.9689 114.061Z" fill="#841918"/>
<path d="M45.6912 132.169C46.197 136.445 46.6405 140.73 47.1917 145C47.465 147.118 47.7354 149.236 48.0117 151.354C48.1471 152.392 48.3161 153.429 48.491 154.462C48.6709 155.524 48.8238 156.606 49.1983 157.624C49.2613 157.795 49.5029 157.76 49.5199 157.582C49.6238 156.506 49.4979 155.417 49.4018 154.343C49.3087 153.305 49.2101 152.264 49.0767 151.229C48.8034 149.111 48.53 146.993 48.2567 144.876C47.7093 140.635 47.0533 136.404 46.4611 132.169C46.3967 131.708 45.6349 131.692 45.6912 132.169Z" fill="#841918"/>
<path d="M47.5328 137.493C48.5571 136.353 49.5733 135.191 50.4805 133.962C50.9196 133.367 51.3494 132.765 51.7625 132.153C52.1822 131.531 52.6435 130.806 52.8112 130.077C52.9126 129.636 52.3918 129.359 52.0447 129.648C51.4822 130.117 51.062 130.784 50.651 131.375C50.2291 131.981 49.8245 132.598 49.3935 133.198C48.534 134.395 47.6849 135.597 46.757 136.747C46.5739 136.973 46.5313 137.271 46.757 137.492C46.9527 137.685 47.3397 137.707 47.5328 137.493Z" fill="#841918"/>
<path d="M95.6047 155.086C94.7386 155.096 93.8741 155.135 93.0088 155.169C92.5748 155.186 92.1434 155.225 91.7108 155.262C91.3025 155.296 90.8648 155.295 90.4664 155.394C90.0903 155.486 89.7689 155.723 89.6246 156.074C89.4824 156.42 89.4799 156.858 89.5108 157.225C89.5763 158.006 89.7179 158.956 90.3319 159.527C90.6177 159.793 91.1574 159.61 91.1428 159.204C91.1197 158.561 90.8305 157.959 90.7647 157.32C90.7348 157.03 90.7504 156.726 90.7125 156.44C90.7076 156.403 90.6919 156.467 90.6665 156.48C90.6896 156.468 90.7717 156.45 90.8064 156.444C90.9144 156.427 91.0537 156.429 91.1698 156.423C92.6533 156.348 94.1305 156.229 95.6044 156.047C95.8721 156.013 96.1039 155.849 96.1039 155.566C96.1044 155.308 95.8757 155.083 95.6047 155.086Z" fill="#841918"/>
<path d="M90.1462 158.483C88.285 158.605 86.3731 158.601 84.5101 158.507C83.5896 158.461 82.6686 158.384 81.7522 158.289C81.2977 158.241 80.8444 158.185 80.3924 158.119C80.1735 158.087 79.9553 158.046 79.7359 158.017C79.5436 157.992 79.1661 158.043 79.0048 157.944C78.1193 157.402 77.6153 159.212 78.8581 159.023C78.9234 159.013 78.9887 159.003 79.054 158.993C78.9166 158.975 78.7789 158.958 78.6414 158.941C79.5306 159.365 80.5997 159.437 81.5728 159.563C82.5126 159.685 83.4519 159.762 84.3996 159.794C86.3951 159.862 88.3086 159.71 90.2771 159.41C90.8213 159.328 90.697 158.447 90.1462 158.483Z" fill="#841918"/>
<path d="M47.8404 161.303C50.6396 160.905 53.4412 161.002 56.2476 161.262C58.9995 161.517 61.7449 161.841 64.4866 162.185C64.6431 162.204 64.6738 161.957 64.5236 161.922C61.751 161.278 58.9673 160.616 56.1201 160.356C53.2958 160.098 50.4359 160.139 47.6356 160.589C47.1447 160.668 47.358 161.371 47.8404 161.303Z" fill="#841918"/>
<path d="M72.3803 139.077C72.9376 139.083 73.4949 139.088 74.0522 139.093C74.3247 139.096 74.5996 139.109 74.8718 139.101C75.1556 139.092 75.4411 139.059 75.7242 139.038C75.9889 139.018 76.2155 138.835 76.2155 138.566C76.2155 138.294 75.9898 138.114 75.7242 138.093C75.4414 138.072 75.1556 138.037 74.8718 138.031C74.5991 138.024 74.3249 138.036 74.0522 138.038C73.4949 138.044 72.9376 138.049 72.3803 138.054C72.1019 138.057 71.8349 138.287 71.8479 138.566C71.8608 138.845 72.0817 139.074 72.3803 139.077Z" fill="#841918"/>
<path d="M114.866 101.755C111.585 104.762 108.162 109.19 109.628 113.812C109.764 114.239 110.544 114.186 110.481 113.701C110.198 111.526 110.594 109.342 111.612 107.382C112.585 105.507 113.994 103.86 115.446 102.312C115.797 101.937 115.25 101.404 114.866 101.755Z" fill="#841918"/>
<path d="M53.4082 106.857C53.3295 108.63 53.5153 110.405 53.9633 112.127C54.3791 113.727 54.9577 115.672 56.2205 116.851C56.4913 117.104 56.9443 116.85 56.8502 116.499C56.6313 115.681 56.2128 114.924 55.8723 114.15C55.5423 113.4 55.2676 112.627 55.046 111.841C54.588 110.216 54.3752 108.539 54.3911 106.857C54.3967 106.247 53.435 106.251 53.4082 106.857Z" fill="#841918"/>
<path d="M54.5082 98.8347C55.2101 99.3498 55.9101 99.8669 56.6065 100.389C56.973 100.663 57.3319 100.956 57.7166 101.207C58.1049 101.46 58.4844 101.754 58.9329 101.896C59.3319 102.023 59.768 101.526 59.5063 101.18C59.2277 100.811 58.8335 100.557 58.4635 100.277C58.0858 99.9903 57.6805 99.7389 57.2836 99.4782C56.5289 98.9825 55.7783 98.4817 55.029 97.9783C54.8004 97.8249 54.4556 97.9385 54.3231 98.1562C54.1678 98.4113 54.2859 98.6716 54.5082 98.8347Z" fill="#841918"/>
<path d="M59.3505 101.144C58.0809 100.279 56.3762 99.9804 54.8989 100.501C54.2327 100.736 53.6239 101.098 53.1092 101.568C52.5396 102.089 52.2175 102.692 51.8611 103.35C52.22 103.35 52.5788 103.35 52.9379 103.35C52.389 102.622 51.5939 102.044 50.9835 101.355C50.3704 100.663 49.8155 99.8951 49.2911 99.1389C48.9309 98.6196 47.8877 98.9396 48.1685 99.5938C48.5791 100.551 49.091 101.363 49.7738 102.165C50.0857 102.531 50.4135 102.888 50.7771 103.207C51.1661 103.548 51.5982 103.968 52.0848 104.17C52.4402 104.318 52.8925 104.224 53.0007 103.812C53.2607 102.821 54.3354 101.97 55.3092 101.661C56.4833 101.289 57.7488 101.43 58.7968 102.055C59.4061 102.418 59.9171 101.531 59.3505 101.144Z" fill="#841918"/>
<path d="M41.9669 100.938C43.3483 99.6796 44.9463 98.6857 46.5784 97.7557C46.9855 97.5238 46.7158 96.8148 46.244 96.9934C45.2931 97.3526 44.4155 97.8015 43.5833 98.3716C42.756 98.9382 41.9741 99.5643 41.2487 100.247C40.7805 100.688 41.4926 101.37 41.9669 100.938Z" fill="#841918"/>
<path d="M42.9043 100.872C43.5317 101.456 44.1589 102.039 44.7863 102.622C45.4199 103.211 46.0405 103.824 46.7573 104.321C46.9143 104.43 47.157 104.362 47.2645 104.224C47.3895 104.063 47.3609 103.878 47.2339 103.728C46.6917 103.086 46.0271 102.544 45.3961 101.986C44.7625 101.425 44.1288 100.865 43.4952 100.305C43.1008 99.9556 42.516 100.511 42.9043 100.872Z" fill="#841918"/>
<path d="M116.796 105.256C117.46 105.306 118.103 105.52 118.637 105.909C119.406 106.471 118.039 106.25 117.722 106.157C117.039 105.958 116.772 106.828 117.27 107.187C118.306 107.935 119.215 108.91 119.859 109.989C119.942 110.126 120.237 110.519 120.081 110.637C119.927 110.753 119.543 110.541 119.415 110.469C118.912 110.184 118.511 109.897 117.911 109.852C117.418 109.814 117.296 110.397 117.547 110.696C117.847 111.055 118.121 111.434 118.361 111.833C118.442 111.968 118.838 112.587 118.661 112.726C118.595 112.777 118.122 112.424 118.048 112.38C117.792 112.227 117.524 112.092 117.222 112.049C116.669 111.97 116.339 112.5 116.691 112.926C117.025 113.329 117.29 113.873 117.296 114.397C117.298 114.512 117.267 114.629 117.279 114.625C117.33 114.608 116.975 114.379 116.998 114.396C116.775 114.233 116.562 114.054 116.349 113.879C115.489 113.172 114.799 112.26 113.904 111.603C113.458 111.276 113.017 111.884 113.209 112.271C113.595 113.048 114.366 113.692 115.021 114.266C115.584 114.76 116.351 115.54 117.133 115.682C117.969 115.834 118.427 115.111 118.389 114.397C118.346 113.574 117.985 112.824 117.463 112.184C117.286 112.476 117.109 112.769 116.932 113.061C117.416 113.133 117.761 113.524 118.223 113.67C118.683 113.815 119.185 113.709 119.475 113.315C120.189 112.346 118.931 110.835 118.355 110.097C118.207 110.345 118.059 110.594 117.911 110.842C118.328 110.887 118.651 111.254 119.002 111.443C119.32 111.614 119.675 111.713 120.042 111.694C120.76 111.656 121.294 111.1 121.174 110.396C121.044 109.641 120.367 108.877 119.901 108.278C119.335 107.548 118.69 106.904 117.98 106.303C117.744 106.598 117.506 106.893 117.27 107.188C117.924 107.463 118.634 107.728 119.329 107.409C119.885 107.153 120.311 106.564 120.177 105.955C119.906 104.722 117.866 104.359 116.795 104.406C116.222 104.432 116.231 105.214 116.796 105.256Z" fill="#841918"/>
<path d="M116.775 102.975C116.818 103.001 116.941 103.101 116.796 102.982C116.827 103.008 116.86 103.032 116.891 103.06C116.954 103.116 117.006 103.195 117.072 103.246C117.065 103.241 116.982 103.129 117.028 103.192C117.041 103.21 117.054 103.228 117.067 103.247C117.09 103.28 117.113 103.314 117.133 103.349C117.18 103.427 117.222 103.508 117.258 103.591C117.237 103.542 117.215 103.493 117.194 103.445C117.259 103.595 117.302 103.75 117.326 103.911C117.318 103.855 117.31 103.799 117.302 103.743C117.323 103.905 117.359 104.063 117.382 104.224C117.375 104.171 117.367 104.117 117.36 104.064C117.375 104.188 117.377 104.312 117.364 104.436C117.351 104.563 117.437 104.741 117.532 104.826C117.627 104.909 117.733 104.961 117.861 104.977C117.983 104.993 118.12 104.978 118.227 104.912C118.36 104.829 118.431 104.723 118.49 104.582C118.583 104.36 118.628 104.114 118.636 103.876C118.646 103.591 118.515 103.283 118.39 103.033C118.179 102.61 117.787 102.235 117.345 102.036C117.204 101.973 117.064 101.941 116.909 101.982C116.778 102.016 116.636 102.114 116.572 102.231C116.424 102.501 116.509 102.81 116.775 102.975Z" fill="#841918"/>
<path d="M116.655 103.988C116.736 104.102 116.817 104.215 116.898 104.329C116.989 104.456 117.075 104.586 117.175 104.706C117.21 104.749 117.296 104.779 117.352 104.777C117.409 104.774 117.459 104.758 117.504 104.725C117.597 104.656 117.639 104.514 117.569 104.414C117.508 104.328 117.447 104.242 117.386 104.157C117.375 104.241 117.363 104.326 117.352 104.411C117.406 104.364 117.454 104.311 117.494 104.252C117.512 104.212 117.529 104.173 117.546 104.133C117.568 104.067 117.571 104.001 117.556 103.935C117.552 103.869 117.532 103.808 117.494 103.751C117.429 103.643 117.311 103.556 117.186 103.523C117.118 103.502 117.049 103.5 116.98 103.514C116.912 103.517 116.848 103.537 116.789 103.573C116.678 103.641 116.581 103.743 116.551 103.869C116.521 103.996 116.528 104.139 116.603 104.252C116.63 104.285 116.657 104.318 116.684 104.352C116.731 104.4 116.786 104.434 116.85 104.454C116.912 104.485 116.978 104.5 117.049 104.497C117.119 104.491 117.187 104.481 117.255 104.465C117.173 104.433 117.091 104.401 117.008 104.369C117.051 104.465 117.093 104.561 117.136 104.657C117.28 104.576 117.424 104.495 117.569 104.414C117.505 104.294 117.425 104.181 117.353 104.066C117.281 103.95 117.208 103.834 117.136 103.719C117.1 103.66 117.038 103.614 116.969 103.596C116.903 103.578 116.814 103.586 116.755 103.623C116.695 103.659 116.643 103.714 116.627 103.783C116.611 103.85 116.613 103.93 116.655 103.988Z" fill="#841918"/>
<path d="M159.507 169.496L116.89 161.185L115.214 138.568L152.925 132.068L192.143 136.549L190.577 158.778L159.507 169.496Z" fill="#F69200"/>
<path d="M134.397 141.804C140.101 142.743 158.91 145.897 160.319 145.855C162.981 145.774 188.093 137.689 190.933 136.411L152.924 132.068L115.324 138.665C115.613 138.703 128.726 140.87 134.397 141.804Z" fill="#FFA83F"/>
<path d="M159.793 145.956L160.004 169.35L190.695 158.841L192.144 136.549L159.793 145.956Z" fill="#E97800"/>
<path opacity="0.58" d="M129.895 136.122C130.366 136.122 172.009 142.243 172.009 142.243L172.014 156.69L178.251 154.335L178.131 140.433L137.798 134.704L129.895 136.122Z" fill="#FFB85A"/>
<path opacity="0.21" d="M154.946 153.089L147.126 151.439C146.996 151.414 147.284 151.217 147.151 151.402L147.052 146.572C147.051 146.498 147.08 146.43 147.133 146.378C147.185 146.327 147.028 146.36 147.102 146.36L155.155 147.508C155.292 147.53 155.39 147.643 155.388 147.778L155.28 152.832C155.277 152.976 155.152 153.094 155.001 153.094L154.946 153.089Z" fill="#E97800"/>
<path d="M154.977 152.942L147.113 151.432C147.057 151.422 147.016 151.375 147.015 151.32L146.917 146.489C146.916 146.416 146.984 146.359 147.059 146.371L155.129 147.658C155.189 147.667 155.232 147.717 155.231 147.775L155.123 152.829C155.121 152.903 155.052 152.956 154.977 152.942Z" fill="white"/>
<path d="M152.924 132.069L164.156 133.352L190.933 136.411L192.142 136.55L192.142 136.556L190.694 158.841L160.003 169.35L160.002 169.325L159.506 169.496L116.889 161.186C116.889 161.186 115.354 138.669 115.324 138.665L133.395 135.495L137.797 134.705L137.852 134.713L152.91 132.071L152.924 132.069ZM152.924 131.565C152.892 131.565 152.86 131.568 152.828 131.573L152.814 131.576L137.84 134.203C137.826 134.202 137.812 134.201 137.797 134.201C137.765 134.201 137.733 134.204 137.701 134.21L133.298 135L115.23 138.169C114.976 138.214 114.794 138.429 114.8 138.676C114.8 138.699 114.803 138.722 114.806 138.744C114.871 139.372 115.853 153.688 116.366 161.219C116.381 161.446 116.553 161.635 116.785 161.68L159.402 169.99C159.436 169.997 159.471 170 159.506 170C159.566 170 159.626 169.99 159.683 169.97L160.031 169.85C160.081 169.849 160.131 169.841 160.178 169.825L190.869 159.315C191.067 159.248 191.203 159.073 191.217 158.872L192.665 136.587C192.682 136.32 192.48 136.081 192.204 136.049L190.995 135.911L164.218 132.852L152.986 131.568C152.965 131.566 152.945 131.565 152.924 131.565Z" fill="#841918"/>
<path d="M159.456 145.588L116.888 137.217L115.214 115.701L152.882 109.94L192.056 114.633L190.491 135.745L159.456 145.588Z" fill="#F69200"/>
<path d="M134.375 118.988C140.073 119.944 158.86 123.151 160.268 123.126C162.926 123.078 188.01 115.672 190.847 114.488L152.881 109.94L115.324 115.793C115.613 115.833 128.71 118.038 134.375 118.988Z" fill="#FFA83F"/>
<path d="M159.742 123.216L159.952 145.454L190.608 135.805L192.056 114.633L159.742 123.216Z" fill="#E97800"/>
<path opacity="0.58" d="M129.878 113.538C130.349 113.543 171.944 119.822 171.944 119.822L171.949 133.554L178.179 131.385L178.059 118.17L137.772 112.278L129.878 113.538Z" fill="#FFB85A"/>
<path d="M152.881 109.94L164.101 111.284L190.847 114.488L192.055 114.633L192.055 114.639L190.608 135.805L159.952 145.454L159.952 145.43L159.456 145.587L116.887 137.216C116.887 137.216 115.354 115.797 115.324 115.793L133.374 112.98L137.772 112.278L137.827 112.286L152.867 109.942L152.881 109.94ZM152.881 109.448C152.854 109.448 152.826 109.451 152.798 109.455L152.785 109.457L137.823 111.789C137.806 111.788 137.789 111.787 137.772 111.787C137.744 111.787 137.716 111.789 137.689 111.793L133.291 112.495L115.243 115.308C114.994 115.347 114.811 115.555 114.814 115.798C114.814 115.823 114.816 115.848 114.82 115.872C114.886 116.484 115.866 130.093 116.378 137.25C116.394 137.47 116.56 137.654 116.785 137.698L159.354 146.069C159.387 146.075 159.422 146.079 159.456 146.079C159.51 146.079 159.565 146.07 159.616 146.054L159.968 145.942H159.969C160.017 145.942 160.065 145.935 160.112 145.921L190.767 136.271C190.966 136.209 191.104 136.037 191.118 135.837L192.565 114.671C192.583 114.412 192.387 114.178 192.119 114.146L190.911 114.001L164.165 110.796L152.945 109.452C152.924 109.45 152.903 109.448 152.881 109.448Z" fill="#841918"/>
<path opacity="0.21" d="M154.946 130.828L147.125 129.177C146.996 129.153 147.284 128.956 147.15 129.141L147.052 124.311C147.051 124.237 147.079 124.169 147.132 124.117C147.185 124.066 147.027 124.099 147.102 124.099L155.154 125.247C155.292 125.268 155.39 125.381 155.387 125.516L155.279 130.571C155.276 130.715 155.151 130.833 155.001 130.833L154.946 130.828Z" fill="#E97800"/>
<path d="M154.977 130.681L147.113 129.171C147.057 129.16 147.016 129.114 147.015 129.059L146.917 124.228C146.916 124.154 146.983 124.098 147.059 124.11L155.129 125.397C155.189 125.406 155.232 125.456 155.231 125.514L155.122 130.568C155.121 130.641 155.051 130.695 154.977 130.681Z" fill="white"/>
<path d="M136.555 85.6367C133.688 86.0313 131.41 88.5008 131.013 91.6307C130.615 88.5008 128.339 86.0311 125.47 85.6367C128.339 85.2422 130.615 82.774 131.013 79.6426C131.41 82.774 133.688 85.2422 136.555 85.6367Z" fill="#FDE41B"/>
<path d="M30.1072 125.267C27.2402 125.662 24.9624 128.131 24.5656 131.261C24.1675 128.131 21.8908 125.662 19.0227 125.267C21.891 124.873 24.1675 122.404 24.5656 119.273C24.9621 122.404 27.2402 124.873 30.1072 125.267Z" fill="#FDE41B"/>
<path d="M151.245 67.5105C149.708 67.722 148.487 69.0457 148.275 70.7232C148.061 69.0457 146.841 67.722 145.304 67.5105C146.841 67.2991 148.061 65.976 148.275 64.2979C148.487 65.9762 149.708 67.2991 151.245 67.5105Z" fill="#FDE41B"/>
<path d="M19.1891 103.377C17.6525 103.588 16.4314 104.912 16.2189 106.589C16.0054 104.912 14.7853 103.588 13.248 103.377C14.7853 103.165 16.0054 101.842 16.2189 100.164C16.4314 101.842 17.6525 103.165 19.1891 103.377Z" fill="#FDE41B"/>
<path d="M33.649 107.587C32.1124 107.799 30.8916 109.123 30.6788 110.8C30.4654 109.123 29.2453 107.799 27.708 107.587C29.2453 107.376 30.4654 106.053 30.6788 104.375C30.8914 106.053 32.1124 107.376 33.649 107.587Z" fill="#FDE41B"/>
<path d="M132.066 59.8304C130.529 60.0418 129.308 61.3655 129.096 63.0431C128.882 61.3655 127.662 60.0418 126.125 59.8304C127.662 59.6189 128.882 58.2959 129.096 56.6177C129.308 58.2961 130.529 59.6189 132.066 59.8304Z" fill="#FDE41B"/>
<mask id="mask0_438_26504" style="mask-type:luminance" maskUnits="userSpaceOnUse" x="56" y="66" width="55" height="65">
<path d="M63.7144 100.281C63.8194 100.32 63.9219 100.371 64.0199 100.434C64.6798 100.853 64.7032 101.638 64.6726 102.349C64.6238 103.483 63.7673 104.998 64.063 106.101C64.1785 106.53 64.7864 106.479 65.155 106.746C65.9832 107.347 65.5488 109.063 65.043 109.41C64.847 109.545 65.7148 111.455 63.7271 112.182C62.9965 112.449 62.2726 113.596 61.3753 113.769C56.7837 114.657 59.464 117.716 58.7384 119.066C57.8587 120.702 57.5713 122.574 57.5003 124.414C57.4758 125.048 57.4805 125.707 57.7593 126.283C58.1483 127.086 58.9965 127.581 59.8269 127.966C64.0537 129.925 68.8966 130.222 73.5885 130.144C80.4162 130.029 87.2302 129.191 93.8676 127.649C95.7782 127.205 97.7052 126.69 99.3756 125.694C102.086 124.078 103.882 121.317 104.906 118.414C105.931 115.511 106.268 112.434 106.655 109.391C107.29 104.403 108.079 99.4325 109.019 94.4891C109.745 90.6741 110.565 86.8392 110.486 82.9616C110.407 79.084 109.34 75.0907 106.704 72.1548C104.335 69.517 100.889 67.945 97.3593 67.15C91.2069 65.7641 84.4654 66.632 79.1026 69.844C77.4739 70.8196 75.9679 72.0027 74.2204 72.7648C72.4416 73.5407 70.482 73.8494 68.653 74.5088C66.1808 75.4002 64.0095 76.9073 61.8716 78.3969C60.424 79.4056 58.9287 80.4653 58.0773 81.9764C57.3712 83.2297 57.1732 84.6834 57.0428 86.1032C56.7236 89.5771 56.7365 93.0788 57.0795 96.5505C57.1655 97.4212 57.2639 98.2934 57.4021 99.1582C57.518 99.8844 57.6407 100.701 58.0095 101.355C58.519 102.258 59.5706 103.564 60.5358 102.979C61.167 102.597 61.4397 101.211 61.9353 100.692C62.3942 100.212 63.0988 100.051 63.7144 100.281Z" fill="white"/>
</mask>
<g mask="url(#mask0_438_26504)">
<path d="M101.248 120.691C89.4231 125.408 75.0459 126.17 59.488 125.099L61.5443 80.4044C76.4763 78.1403 92.033 77.8026 108.05 78.8841L101.248 120.691Z" fill="#E59413"/>
<path d="M101.249 120.691C89.4235 125.409 77.0168 126.32 61.4587 125.249L63.6497 82.3986C78.5817 80.1344 91.4831 80.1063 107.5 81.1878L101.249 120.691Z" fill="#FFAD12"/>
<path d="M93.6557 81.6804L76.7849 82.2069L77.3327 75.8896L83.139 75.5739L84.2344 69.6779L87.3018 69.4673L87.8496 75.4687L93.8748 76.2055L93.6557 81.6804Z" fill="#BBBDBF"/>
<path d="M81.0571 81.1034C83.3595 79.1501 85.8499 77.4102 88.201 75.5119L87.8496 75.4689L87.3016 69.4678L84.2344 69.6784L83.139 75.5742L77.3329 75.8901L76.7849 82.2071L79.9304 82.109C80.2984 81.7663 80.6726 81.4297 81.0571 81.1034Z" fill="#F0F1F1"/>
<path d="M92.419 76.8137C90.2988 78.4559 88.2493 80.1772 86.2117 81.9125L93.6563 81.6801L93.8755 76.2052L93.3215 76.1375C93.0214 76.3642 92.7159 76.5835 92.419 76.8137Z" fill="#F0F1F1"/>
<path d="M94.6366 79.3403C97.4214 79.3998 100.206 79.4046 102.991 79.4613C103.976 79.4813 104.962 79.5018 105.948 79.5319C106.76 79.5568 107.507 79.5766 108.299 79.3691C108.794 79.2394 108.871 78.5834 108.44 78.3334C107.7 77.9035 106.93 77.8017 106.083 77.7264C105.082 77.6377 104.083 77.5965 103.078 77.578C100.261 77.5259 97.452 77.5704 94.6366 77.656C93.5106 77.6903 93.5058 79.3163 94.6366 79.3403Z" fill="#841918"/>
<path d="M62.4558 80.9328C64.3657 80.5633 66.3353 80.4283 68.2727 80.2583C69.6083 80.141 70.9457 80.0444 72.2838 79.9596C73.7496 79.8668 75.3313 79.8737 76.6826 79.2749C77.1798 79.0545 76.9765 78.3828 76.5417 78.2392C75.1371 77.7746 73.5051 77.99 72.047 78.0875C70.6853 78.1786 69.3243 78.2819 67.9653 78.4079C65.9617 78.5936 63.9443 78.83 61.9899 79.3089C60.8883 79.5786 61.3588 81.1449 62.4558 80.9328Z" fill="#841918"/>
<path d="M59.254 114.626C59.0601 118.219 58.8661 121.811 58.6722 125.404C58.6468 125.875 59.0834 126.177 59.5199 126.218C65.6405 126.806 71.8537 126.542 77.9689 126.017C83.7922 125.517 89.6418 124.827 95.3646 123.658C96.4745 123.432 97.5767 123.171 98.6648 122.861C99.5204 122.618 100.306 122.362 101.021 121.835C101.558 121.439 101.261 120.642 100.554 120.771C99.8958 120.891 99.262 121.034 98.5137 121.238C97.5774 121.493 96.6287 121.698 95.6797 121.903C93.1675 122.445 90.6276 122.866 88.0816 123.231C81.8959 124.117 75.635 124.644 69.3824 124.792C66.096 124.87 62.7969 124.865 59.5199 124.589C59.8025 124.861 60.0849 125.132 60.3676 125.404C60.515 121.811 60.6627 118.219 60.8103 114.626C60.8496 113.662 59.3055 113.668 59.254 114.626Z" fill="#841918"/>
<path d="M60.9008 79.9814C60.6633 83.8036 60.4222 87.6239 60.2537 91.4496C60.1695 93.361 60.0992 95.2724 60.0057 97.1837C59.961 98.0977 59.9159 99.0118 59.8717 99.9261C59.8281 100.826 59.6337 101.894 60.0892 102.713C60.3147 103.118 60.897 103.062 61.1358 102.713C61.638 101.979 61.5446 100.901 61.5845 100.051C61.6294 99.0949 61.6728 98.1392 61.7168 97.1837C61.805 95.2716 61.9164 93.3612 62.0139 91.4496C62.2087 87.628 62.3308 83.8056 62.4569 79.9814C62.4887 79.0145 60.96 79.0265 60.9008 79.9814Z" fill="#841918"/>
<path d="M107.44 79.2855C105.854 90.3 103.956 101.27 101.936 112.218C101.349 115.396 100.566 118.61 100.439 121.84C100.412 122.52 101.421 122.599 101.629 121.995C102.576 119.247 102.979 116.33 103.493 113.484C103.984 110.769 104.466 108.052 104.935 105.334C105.867 99.9407 106.717 94.5345 107.51 89.1209C107.981 85.9066 108.437 82.6902 108.872 79.4712C108.976 78.6965 107.552 78.5038 107.44 79.2855Z" fill="#841918"/>
<path d="M83.8607 75.9056C83.7562 74.9259 83.7848 73.934 83.9905 72.968C84.0935 72.4841 84.2312 72.004 84.4113 71.5412C84.5401 71.2101 84.7254 70.8534 85.0283 70.6402C84.9595 70.6886 85.1451 70.5829 85.1682 70.5702C85.2472 70.5269 85.1601 70.5702 85.1444 70.5761C85.1893 70.5595 85.236 70.5452 85.2821 70.5327C85.3383 70.5177 85.4937 70.4937 85.3497 70.5092C85.4456 70.499 85.5425 70.4983 85.6389 70.5022C85.6874 70.5042 85.7367 70.5077 85.7848 70.5125C85.7711 70.5112 85.6545 70.4913 85.7498 70.5101C85.8358 70.5271 85.9204 70.5456 86.0046 70.5702C86.0442 70.5818 86.2164 70.6415 86.0953 70.5936C86.1903 70.6313 86.2827 70.6792 86.3716 70.7285C86.4507 70.7725 86.527 70.8212 86.602 70.8713C86.6778 70.9219 86.6077 70.8739 86.5941 70.8635C86.6352 70.8951 86.6751 70.9286 86.7141 70.9624C86.7726 71.0134 86.8293 71.0668 86.8833 71.122C86.9194 71.1588 86.9539 71.1972 86.9883 71.2354C87.0196 71.27 87.0546 71.3239 87.006 71.2569C87.0582 71.3291 87.1079 71.4028 87.1528 71.4793C87.1716 71.5116 87.2726 71.7147 87.2215 71.5961C87.3161 71.8157 87.3814 72.0535 87.4218 72.2876C87.6015 73.333 87.2256 74.4188 87.3179 75.477C87.3592 75.9496 87.9669 76.1328 88.2489 75.7194C88.9262 74.7269 89.18 73.4049 89.0307 72.2329C88.8867 71.1022 88.3718 70.1567 87.3923 69.4972C86.5578 68.9354 85.4656 68.7532 84.5247 69.1637C83.4359 69.6387 82.9947 70.8107 82.732 71.8497C82.3802 73.2416 82.3337 74.6623 82.5417 76.0772C82.6465 76.79 83.9381 76.6298 83.8607 75.9056Z" fill="#841918"/>
<path d="M83.0214 75.1959C81.01 74.7069 78.9268 74.7377 76.934 75.2947C76.6652 75.3699 76.4137 75.5829 76.3518 75.8543C75.8765 77.9327 75.7681 80.0728 75.9736 82.1896C76.0285 82.7553 76.4711 83.0747 77.0518 82.979C79.7835 82.5291 82.6233 82.5744 85.3859 82.4999C88.1914 82.4242 91.0241 82.443 93.8069 82.0564C94.6085 81.945 94.3571 80.7955 93.624 80.7578C90.7909 80.6113 87.9496 80.6813 85.115 80.7685C82.2857 80.8555 79.3948 80.9398 76.599 81.4003C76.9583 81.6634 77.3178 81.9265 77.6772 82.1896C77.4846 80.2063 77.5948 78.2397 77.9596 76.2803C77.7654 76.4669 77.5714 76.6533 77.3773 76.8399C79.0881 76.2907 80.8705 76.1721 82.6382 76.5316C83.5397 76.715 83.9271 75.4161 83.0214 75.1959Z" fill="#841918"/>
<path d="M88.2207 76.5622C89.3107 76.5801 90.4006 76.6056 91.4908 76.6128C91.9385 76.6157 92.4757 76.5901 92.8799 76.637C93.2662 76.6819 93.3984 76.7826 93.6727 77.0697C93.6144 76.9736 93.5561 76.8775 93.4978 76.7815C93.7451 77.378 93.4729 78.1813 93.3724 78.8011C93.2311 79.672 93.0897 80.5414 92.9781 81.4165C92.8878 82.125 94.145 82.2907 94.2813 81.5859C94.485 80.5325 94.6417 79.4719 94.8094 78.4126C94.9529 77.5047 95.1478 76.3809 94.3339 75.6926C93.5772 75.0526 92.4231 75.1866 91.4908 75.1919C90.4008 75.1982 89.3107 75.2228 88.2207 75.2401C87.3356 75.2538 87.3343 76.5476 88.2207 76.5622Z" fill="#841918"/>
</g>
</svg>
