<svg width="40" height="40" viewBox="0 0 40 40" fill="none" xmlns="http://www.w3.org/2000/svg">
<circle cx="20" cy="20" r="20" fill="#FFDBC4"/>
<path d="M28 24.6364C28 24.8409 27.9621 25.108 27.8864 25.4375C27.8106 25.767 27.7311 26.0265 27.6477 26.2159C27.4886 26.5947 27.0265 26.9962 26.2614 27.4205C25.5492 27.8068 24.8447 28 24.1477 28C23.9432 28 23.7424 27.9867 23.5455 27.9602C23.3485 27.9337 23.1307 27.8864 22.892 27.8182C22.6534 27.75 22.4754 27.6951 22.358 27.6534C22.2405 27.6117 22.0303 27.5341 21.7273 27.4205C21.4242 27.3068 21.2386 27.2386 21.1705 27.2159C20.428 26.9508 19.7652 26.6364 19.1818 26.2727C18.2197 25.6742 17.2197 24.8561 16.1818 23.8182C15.1439 22.7803 14.3258 21.7803 13.7273 20.8182C13.3636 20.2348 13.0492 19.572 12.7841 18.8295C12.7614 18.7614 12.6932 18.5758 12.5795 18.2727C12.4659 17.9697 12.3883 17.7595 12.3466 17.642C12.3049 17.5246 12.25 17.3466 12.1818 17.108C12.1136 16.8693 12.0663 16.6515 12.0398 16.4545C12.0133 16.2576 12 16.0568 12 15.8523C12 15.1553 12.1932 14.4508 12.5795 13.7386C13.0038 12.9735 13.4053 12.5114 13.7841 12.3523C13.9735 12.2689 14.233 12.1894 14.5625 12.1136C14.892 12.0379 15.1591 12 15.3636 12C15.4697 12 15.5492 12.0114 15.6023 12.0341C15.7386 12.0795 15.9394 12.3674 16.2045 12.8977C16.2879 13.0417 16.4015 13.2462 16.5455 13.5114C16.6894 13.7765 16.822 14.017 16.9432 14.233C17.0644 14.4489 17.1818 14.6515 17.2955 14.8409C17.3182 14.8712 17.3845 14.9659 17.4943 15.125C17.6042 15.2841 17.6856 15.4186 17.7386 15.5284C17.7917 15.6383 17.8182 15.7462 17.8182 15.8523C17.8182 16.0038 17.7102 16.1932 17.4943 16.4205C17.2784 16.6477 17.0436 16.8561 16.7898 17.0455C16.536 17.2348 16.3011 17.4356 16.0852 17.6477C15.8693 17.8598 15.7614 18.0341 15.7614 18.1705C15.7614 18.2386 15.7803 18.3239 15.8182 18.4261C15.8561 18.5284 15.8883 18.6061 15.9148 18.6591C15.9413 18.7121 15.9943 18.803 16.0739 18.9318C16.1534 19.0606 16.197 19.1326 16.2045 19.1477C16.7803 20.1856 17.4394 21.0758 18.1818 21.8182C18.9242 22.5606 19.8144 23.2197 20.8523 23.7955C20.8674 23.803 20.9394 23.8466 21.0682 23.9261C21.197 24.0057 21.2879 24.0587 21.3409 24.0852C21.3939 24.1117 21.4716 24.1439 21.5739 24.1818C21.6761 24.2197 21.7614 24.2386 21.8295 24.2386C21.9659 24.2386 22.1402 24.1307 22.3523 23.9148C22.5644 23.6989 22.7652 23.464 22.9545 23.2102C23.1439 22.9564 23.3523 22.7216 23.5795 22.5057C23.8068 22.2898 23.9962 22.1818 24.1477 22.1818C24.2538 22.1818 24.3617 22.2083 24.4716 22.2614C24.5814 22.3144 24.7159 22.3958 24.875 22.5057C25.0341 22.6155 25.1288 22.6818 25.1591 22.7045C25.3485 22.8182 25.5511 22.9356 25.767 23.0568C25.983 23.178 26.2235 23.3106 26.4886 23.4545C26.7538 23.5985 26.9583 23.7121 27.1023 23.7955C27.6326 24.0606 27.9205 24.2614 27.9659 24.3977C27.9886 24.4508 28 24.5303 28 24.6364Z" fill="#FF6704"/>
</svg>
