<svg width="40" height="40" viewBox="0 0 40 40" fill="none" xmlns="http://www.w3.org/2000/svg">
<circle cx="20" cy="20" r="20" fill="white"/>
<path d="M20 9C22.3869 9 24.6761 9.94821 26.364 11.636C28.0518 13.3239 29 15.6131 29 18C29 21.726 26.16 25.63 20.6 29.8C20.4269 29.9298 20.2164 30 20 30C19.7836 30 19.5731 29.9298 19.4 29.8C13.84 25.63 11 21.726 11 18C11 15.6131 11.9482 13.3239 13.636 11.636C15.3239 9.94821 17.6131 9 20 9ZM20 15C19.2044 15 18.4413 15.3161 17.8787 15.8787C17.3161 16.4413 17 17.2044 17 18C17 18.7956 17.3161 19.5587 17.8787 20.1213C18.4413 20.6839 19.2044 21 20 21C20.7956 21 21.5587 20.6839 22.1213 20.1213C22.6839 19.5587 23 18.7956 23 18C23 17.2044 22.6839 16.4413 22.1213 15.8787C21.5587 15.3161 20.7956 15 20 15Z" fill="#FF6704"/>
</svg>
